<?xml version="1.0" standalone="no"?>
<!DOCTYPE svg PUBLIC "-//W3C//DTD SVG 1.0//EN" "http://www.w3.org/TR/2001/REC-SVG-20010904/DTD/svg10.dtd">
<svg xmlns="http://www.w3.org/2000/svg" xmlns:xlink="http://www.w3.org/1999/xlink" id="body_1" width="51" height="38">

<g transform="matrix(0.5 0 0 0.49350652 0 0)">
	<g transform="matrix(0.49756098 0 0 0.5 0 0)">
		<g transform="matrix(0.30704755 0 0 0.30704755 25.5 -0)">
			<g>
                <path d="M241.371 428.408L241.371 300.931C 241.371 290.482 228.832 286.302 222.563 292.572L222.563 292.572L132.702 382.43298C 128.522 386.61298 128.522 394.972 133.747 399.15097C 160.914 421.09396 194.351 434.67798 229.87799 438.85696C 235.102 440.947 241.371 434.678 241.371 428.408z" stroke="none" fill="#FFD15C" fill-rule="nonzero" />
                <path d="M101.355 132.702C 79.412 159.86899 65.828 193.306 61.649002 228.833C 60.604004 235.10199 65.829 241.372 73.143005 241.372L73.143005 241.372L200.62 241.372C 211.069 241.372 215.249 228.833 208.97899 222.564L208.97899 222.564L119.11799 132.703C 113.894 127.478 105.535 127.478 101.355 132.702z" stroke="none" fill="#FFD15C" fill-rule="nonzero" />
                <path d="M61.649 272.718C 65.828995 309.289 80.457 341.68097 101.354996 368.849C 105.534996 374.073 112.849 374.073 118.073 369.894L118.073 369.894L207.93399 280.03302C 215.24799 272.71902 210.02399 261.225 199.575 261.225L199.575 261.225L73.143 261.225C 66.873 260.18 60.604 266.449 61.649 272.718z" stroke="none" fill="#FFD15C" fill-rule="nonzero" />
                <path d="M439.902 228.833C 435.72202 192.262 421.094 159.87 400.196 132.702C 396.01602 127.478 388.70203 127.478 383.47803 131.657L383.47803 131.657L293.61703 221.518C 286.30304 228.832 291.52704 240.326 301.97604 240.326L301.97604 240.326L429.45404 240.326C 434.678 241.371 440.947 235.102 439.902 228.833z" stroke="none" fill="#FFD15C" fill-rule="nonzero" />
                <path d="M241.371 200.62L241.371 73.143C 241.371 66.874 236.147 61.649 228.832 61.649C 192.261 65.828995 159.869 80.457 132.701 101.354996C 127.477005 105.534996 127.477005 112.849 131.656 118.073L131.656 118.073L221.517 207.93399C 228.833 215.249 241.371 211.069 241.371 200.62z" stroke="none" fill="#FFD15C" fill-rule="nonzero" />
                <path d="M260.18 73.143L260.18 200.62C 260.18 211.069 272.719 215.249 278.988 208.97899L278.988 208.97899L368.849 119.11799C 373.029 114.93799 373.029 106.57899 367.804 102.39999C 340.637 80.456985 307.19998 66.872986 271.67297 62.693985C 266.449 60.604 260.18 65.829 260.18 73.143z" stroke="none" fill="#FFD15C" fill-rule="nonzero" />
                <path d="M400.196 368.849C 422.139 341.682 435.72302 308.245 439.902 272.71802C 440.94702 266.449 435.72202 260.17902 428.40802 260.17902L428.40802 260.17902L300.931 260.17902C 290.482 260.17902 286.302 272.71802 292.572 278.98703L292.572 278.98703L382.43298 368.84802C 387.657 374.073 396.016 374.073 400.196 368.849z" stroke="none" fill="#FFD15C" fill-rule="nonzero" />
                <path d="M272.718 439.902C 309.289 435.72202 341.68097 421.094 368.849 400.196C 374.073 396.01602 374.073 388.70203 369.894 383.47803L369.894 383.47803L280.03302 293.61703C 272.71902 286.30304 261.225 291.52704 261.225 301.97604L261.225 301.97604L261.225 429.45404C 260.18 434.678 266.449 440.947 272.718 439.902z" stroke="none" fill="#FFD15C" fill-rule="nonzero" />
                <path d="M250.776 0C 111.804 0 0 111.804 0 250.776C 0 253.911 0 257.045 0 260.18C 5.224 393.927 114.939 501.551 250.776 501.551C 386.613 501.551 496.327 393.927 501.551 260.18C 501.551 257.04498 501.551 253.911 501.551 250.77599C 501.551 111.804 389.747 0 250.776 0zM250.776 468.114C 133.74701 468.114 38.662003 375.118 33.436996 260.17902C 33.436996 257.044 33.436996 253.91002 33.436996 250.77501C 33.436996 130.612 130.613 33.436005 250.776 33.436005C 370.939 33.436005 468.115 130.612 468.115 250.77501C 468.115 253.91 468.115 257.044 468.115 260.17902C 462.89 376.163 367.804 468.114 250.776 468.114z" stroke="none" fill="#FFD15C" fill-rule="nonzero" />
			</g>
			<g>
			</g>
			<g>
			</g>
			<g>
			</g>
			<g>
			</g>
			<g>
			</g>
			<g>
			</g>
			<g>
			</g>
			<g>
			</g>
			<g>
			</g>
			<g>
			</g>
			<g>
			</g>
			<g>
			</g>
			<g>
			</g>
			<g>
			</g>
			<g>
			</g>
		</g>
	</g>
</g>
</svg>