<svg enable-background="new 0 0 1855.2 699.8" viewBox="0 0 1855.2 699.8" xmlns="http://www.w3.org/2000/svg"><path d="m1845.2 404.2c-1.6-6.4-4.3-12.2-8.1-17.8l-.3-.4-.2-.2c-2.7-3.6-5.5-6.1-8.4-7.8-1.6-1.2-3.5-2.2-5.7-3h-.1c-.5-.2-1-.3-1.4-.4-.7-.2-1.4-.4-2.1-.6l-.8-.3h-.2c-5.4-1.6-10.9-1.5-16.3.2-1.7.4-3.5 1-5.5 1.7-1.7.6-3.4 1.4-5 2.4-.1 0-.1-.1-.2-.1l-2.3-1.5h-.1c-1.6-1-3.3-1.9-5.2-2.6-.5-.2-1.1-.4-1.8-.6l-.2-.1c-.9-.4-2-.8-3.3-1.2-2-.8-4-1.2-6.3-1.2h-5.3l-.8.5c-6.2-.6-12.4 1.4-17.4 5.8-1.7.8-3.2 1.7-4.4 2.8-.2.1-.5.2-1 .4-1.4 0-2.9.1-4.5.3-1.9.2-3.8.5-6 .9-3.9.4-7.9.9-12 1.5-3.8.6-7.9 1.1-12.1 1.5l-2.8.4c-1.8.3-3.7.6-5.4.8l-2.5.4c-1.8.3-3.6.6-5.3.9-5 .8-10 1.7-15.8 3.1-4.5 1-9.1 1.9-14.6 2.7l-1.3.3c-.2.1-.9.2-2.6.2h-.8l-11.3 2-.8.2c-1.5.4-3 .8-4.6 1.2l-1.3.3c-1.2.3-2.4.5-3.8.8 0-4.2-.1-8.3-.3-12.5-.2-4.7-.3-9.3-.3-14.2 0-4.6-.2-9.2-.6-13.8-.4-3.9-.6-8-.6-12v-4l-1.1-1.1-3.2-22.1c-.4-3.7-.9-7.3-1.5-10.9l-.1-.4c2.5-1 4.8-1.6 6.8-1.8l1.4-.3.8-.3c1.8-.6 3.7-1.1 5.3-1.6l.8-.1c1.9-.5 3.9-.9 5.8-1.2.6.4 1.2.8 1.8 1.2l1 .5c1.5.6 3.4 1.6 5.2 2.5 2.2 1.3 4.4 2.2 6.3 3l1.2.5.5.2c6.4 1.8 12.5 1.5 18.2-1l.8-.4.2-.2c.6-.3 1.2-.6 1.7-1l1.2.6c4.2 2.2 9.5 2.7 15.7 1.5l1.3-.4c4.3-1.6 7.5-3.8 9.7-6.8l.3-.3.2-.3c.8-1.3 1.8-2.8 2.5-4.7v-.1c.1-.3.2-.6.4-.9.1-.3.3-.6.4-.8 2.4-4.5 4.3-6 5-6.5l.5-.3c1.5-.9 3-2.2 5.1-4.2 4.2-3.2 7.4-7.4 9.4-12.1.1-.3.2-.5.4-.8.3-.6.6-1.3.9-2l.2-.4c.1-.3.2-.5.4-.8.2-.4.4-.8.6-1.3 1.2-2.4 1.6-4.9 1.4-7.3 4.4-2 7.1-6.2 7.1-11.5v-1l-.3-1.6c-.1-.6-.3-1.2-.5-1.8.5-1.4.8-3 .8-4.6v-1l-.2-1.1c-.6-2.7-1.6-5.3-2.8-7.8l-.2-.4c-1.1-1.9-2.4-4-3.8-6l-.5-.6-.4-.4c-1-1-2.2-1.8-3.2-2.2-.8-2.3-2.2-4.4-4.1-6.4l-.7-.7-8-5.6-.3-.3-.5-.3c-7.2-4.4-14.6-5.8-22-4.1-1 .2-2.1.4-3.2.6-.6.1-1.2.2-1.8.3s-1.1.2-1.8.3c-3.3.6-6.6 1.9-10 3.9-1 .5-1.7.8-2.4 1-1.1.3-2.5.7-3.9 1l-12.3 1.7h-.5l-.5.1c-4 .9-7.7 1.4-11.7 1.8h-.2c-3.1.4-6 .9-8.9 1.3v-4.6l-.1-.9c-.1-.6-.1-1-.1-1.4v-.2c.1-3.1.2-6 .2-9.1 0-1.3.2-2.7.5-4.2.5-1.6.9-3.2 1.2-4.7.3-.4.5-.6.6-.7l3.2-1.8c1-.5 1.8-1 2.6-1.4.4-.2.7-.4 1.1-.7l.8-.5c.5-.3.9-.5 1.1-.7l.3-.2c.4-.2.7-.4 1-.7.3-.2.6-.4.9-.6l.5-.3c.9-.6 1.7-1.1 2.5-1.7l.1-.1c.3-.2.6-.5.9-.6l.4-.3.3-.3c.2-.1.4-.3.5-.4s.3-.2.4-.3l.6-.3.9-.7c4.9-4 10.4-6.9 16.3-8.8l.4-.1.3-.2c4.6-1.7 9.2-3.8 13.8-6.3l1.3-.6 1.1-1.1c.8-.8 1.6-1.4 2.6-2.2.1 0 .1-.1.2-.1 0 .3.1.6.1.9v.2c.2 1.7.3 3.5.3 5.2v.6.6c1 7.4 2.2 13.5 3.9 18.7l.2.5c2 5.3 5.9 9.7 11.3 12.5l2.2 1.1h1.3c2 .6 4.2.6 6.3-.1 9.9-.8 14.1-7.4 15.8-11.3 1.2-2.5 1.8-5.1 2-7.7l1.8-12.1v-1.1c0-2.8.2-5.6.7-8.5.5-2.5 1-5.1 1.6-7.8l.5-2.7v-.2c.2-.7.7-2.1 2.1-4.1l3.7-4.1c3-2.2 5.9-4.9 8.2-7.8 2.5-3.1 4.4-5.8 6-8.4 1-1.2 2-2.5 2.8-3.6l1.5-2c1.4-1.8 2.4-2.8 3.3-3.6l.6-.5.3-.3c1.3-1.3 2.1-2.3 2.8-3.4.8-.8 1.5-1.7 2.1-2.5 3.1-2.5 6-5.7 8.8-9.7 2.3-2.7 3.6-5.9 3.8-9.4.4-2 .6-4 .6-6 0-.9.1-1.5.3-2.1v-.2c.8-2.9.8-6 .2-9.8.4-2.1.5-4.4.2-7 0-1.6-.1-3.3-.5-4.9l.2-1.5c.8-4.6-.1-9.1-2.5-13l-.6-.8-.6-.6c-5.7-6.2-11.8-10.6-18.5-13.4l-.5-.2c-4.3-1.5-8.9-2.3-13.7-2.3h-.6-.7c-7.3 1-14 3.2-20.1 6.7-2.7 1.1-5.4 2.9-8.2 5.2-.3.1-.9.3-1.7.5l-20.6 7.2-.8.3c-1.4.6-2.9 1.2-4.5 1.8-.6.2-1.2.5-1.8.7l-2.1.8c-3.7 1.4-6.9 2.9-9.8 4.5-5.9 3-12.4 5-19.2 6l-1.3.2-3 1.3c-6.7 1.4-13.5 2.6-21.3 3.8-8.3 1.3-15.5 2-22.1 2.1-2.2 0-4.1.3-5.8.8-3.9.4-7.9 1-12 1.8-3 .6-7.6 1.5-12.3 2.3l-1.6.4c-.1 0-.1 0-.2.1-.8-.9-1.7-1.8-2.8-2.4-.9-1.9-2.1-3.6-3.7-4.9l-.5-.4c-1.3-1.1-2.6-1.9-3.6-2.5-1.3-.8-3.8-2.3-7.1-2.5l-.4-.3c-4-3.6-8.5-3.6-11.9-1.9-1-.2-2-.2-3-.2h-1.8c-3.2 0-5.7.5-7.9 1.7l-.6.4c-1.7 1-3.9 1.9-6.7 2.9-1.4.5-3.2.7-5.4.4h-1c-4.7 0-9.3.6-13.5 1.9-4.8 1.4-9.2 4-13.2 7.7l-1.8 1.8c-9 7.6-13.4 18-13 30.1l.1 1c.1.5.1 1 .2 1.5-.3 2.1-.3 4.3-.3 6.5v.7c.4 4.2.9 8.3 1.5 12.2s1.5 8 2.8 12.5c.7 3.4 1.7 7.2 2.8 11.6v.2l.2.7c.8 2.6 1.5 5 2.1 7.7.2.8.4 1.5.6 2.2s.4 1.3.5 2c.6 3.2 1.7 6.7 3.5 11l.4.9.2.3c.9 1.5 1.4 3 1.6 4.6l.2 1c2.4 9.5 4 18.4 5.1 27l.2 1.2c.3 1.2.5 2.2.8 3.3.1.5.2 1 .4 1.6.3 1.6.4 2.8.4 3.9 0 1 0 4.1 1.8 7 .4 1 .8 2 1 2.9v.2l.2.7c.5 1.6 1 3.4 1.3 4.9l.2 1c1 3.3 1.9 6.7 2.7 10.8.1.5.2.9.3 1.4v.2c-2 1.4-4.5 3.1-6.9 5.2-2.7 2.3-5 4.8-7.2 7.9l-.1.1c-.1.1-.2.3-.3.4l-.3.3c-.7 1-1.4 2-2 3-1.5 2.3-2.4 4.8-2.6 7.6-.1.2-.1.4-.1.6s-.1.4-.1.5l-.7 2.8c-.6 2.6-.5 5.3.3 8l-.2.9c-.9 3.3-.6 6.6.9 10-.7 4.1.4 8.1 3.2 11.7l.4.5.2.3c.1.1.3.4.6 1l.5 1.1.8 1c2.6 3.1 5.6 6.2 8.8 8.8 2.9 2.4 6.4 4.1 10.3 4.9 1.3 2.6 2.6 4.7 3.8 6.6.2.3.4.7.7 1 .3.4.6.9.8 1.2l.1.2c.7 1.2 1.5 2.4 2.4 3.7 1.1 2.4 2.3 4.6 3.6 6.6 1.3 2.1 3 4.6 5.2 7.2 1.2 1.4 1.8 2.9 1.8 4.8v4.3l.1.4v.4c.1.9.3 2.4.7 3.9.3 2.6.7 5.7 1 8.9l1.2 10.6 1.8 8.8c.4 2.5.7 5 1.1 7.3l.4 2.5c.3 1.8.6 3.7.9 5.4l5.3 26.4.2.7c.3 1.1.5 2.4.7 3.7 0 .3-.1.6-.1.9-.1.6-.2 1.2-.2 1.9v.1c-.4 2.7-.7 5.6-.9 8.6-.2 2.4-.2 4.8.1 8v.2c0 .3-.1.7-.1 1-.2 3.2-.1 6.3.3 9.4 0 6.7 1.5 13.4 4.2 20l2.9 6.2c.5 1.4 1.3 3 2.3 5.2l.8 1.7.5 1.3 1 1c.9 1.1 1.8 2.5 2.9 4.6.4.7.7 1.3 1 2 .2.4.4.8.6 1.3.6 1.2 1.2 2.4 1.8 3.5.7 1.3 1.1 2.4 1.4 3.2l.1.3.1.3c.4 1.2.8 2.2 1 3.2.2.9.4 1.8.6 2.7.1.6.3 1.3.4 1.9v.1c.5 2.1.9 4 1.2 5.7v.2l.1.6c.8 3.2 1.2 6.5 1.6 9.1l.1.7c1 6.2 2.8 11 5.6 14.8 4.2 6.8 10.2 10.5 17 10.5 2.8 0 5.4-.6 8.1-1.7l.5-.3c3.2-1.7 5.9-4.3 8.3-7.9l.6-1 .4-1c.9-2.5 1.5-5 1.7-7.5 1.1-4.3 1.4-8.8.9-13.6.5-3.5.4-7.2-.3-11.3-.4-2.6-.5-5-.5-7.1 0-.8 0-1.7-.1-2.6.3-1.3.8-2.8 1.5-4.5.3-.5.5-.8.6-1 .3-.3 1-.9 2.5-1.8.7-.4 1.6-.8 2.3-1.1l.3-.1c1-.5 2-1 3-1.6 1.1-.5 2.1-1.1 3.2-1.6l.1-.1c1.6-.9 3.4-1.5 5.7-1.8l1.2-.2 6-2.2 1.2-.6c6-3.6 12.5-6.2 19.6-7.5l1.5-.2 1.1-.7c.3-.1.8-.4 1.7-.7 1.2-.4 2.4-.9 3.6-1.4 3-1.2 6.7-2.3 11.4-3.5l11.5-1.7.7-.1c4.2-.8 7.8-1.4 11.5-1.9l.5-.1c4.1-.6 8.3-1.4 11.9-2l.4-.1.9-.3c2.6-.9 5-1.3 6.8-1.3 3.7 0 6.9-.7 9.6-2.2 1.8-.7 3.8-1.4 5.6-1.9l1.3-.4c2.8-.8 5.3-1.2 7.2-1.5l1.4-.2.8-.4c1.6-.2 3.2-.8 4.6-1.6 1.2-.5 2.4-.9 3.5-1.1l.7-.1.4-.2c1.6-.5 3.1-.8 4.6-1 2.1-.2 4.3-.6 7.2-1.6l2.7-.8c3.4-1 6.8-1.9 10.4-3.1 3.4-1.1 7.3-2.1 11.7-2.9l1.3-.4c2.3-.8 4.4-1.5 6.6-2.1l.4-.1.3-.2c2.3-.9 4.4-1.9 6.3-3 1.1.1 2.3 0 3.3-.3h.1c3.1-.9 5.6-3 7.2-6.1 3.5-2 5.9-5.2 6.6-9 .1-.1.1-.3.2-.4.1-.3.3-.6.4-1l.2-.6c.1-.3.2-.5.4-.8.2-.5.5-1 .6-1.5l.6-1.7c.2-.6.4-1.2.7-1.8s.5-1.3.8-2l.5-1.4.3-1c.5-2 .6-4 .2-6v-.1c.1-.3.2-.6.2-.9.1-.2.1-.4.2-.5l.2-.5.2-.9c1.1-3 .8-6.1-.6-9z"/><path d="m1098.1 371.5c-.6-7.1-1-13.4-1.1-19.7v-.3c-.1-1.3-.1-2.6-.2-3.9-.1-1.1-.1-2.3-.2-3.4l-.3-5.7c-.2-3.8-.4-7.3-.7-11l-.1-1.2c-.2-4.8-.6-9.8-1-14.4-.4-4.2-.8-9.1-1.1-13.8 0-1.5 0-3.4-.2-5.8l-.2-1.8c-.1-.6-.1-1.2-.2-1.8-.1-1.1-.2-2.3-.4-3.6-.8-5.1-.8-8.3-.8-9.4v-1c-.8-9.1-1.7-16-2.6-22.1-.9-5.8-2.1-13.3-3.3-20.6-1.6-8.7-3.6-17.4-6-25.6l-.3-.9c-1.8-4.7-3-8.9-3.8-12.9l-.2-.8c-.6-2.2-1.5-4.6-2.8-7.3-1.6-4.1-3.3-8-5.1-11.7l-1.1-2.4c-1.1-2.4-2.2-4.9-3.3-7.4l-.6-1.2c-2.3-4.7-4.9-9.9-7.8-15.4l-.4-.7-.2-.1-.3-.6c-2.3-4.1-4.8-8.7-7.8-13.3-2-3.9-4.9-7.8-8.9-12-4.4-5.4-9.7-11.1-16.8-17.8-5.7-5.3-11.9-9.9-18.6-13.9-.2-.1-.4-.3-.6-.4-.3-.2-.6-.5-1-.7-.1-1.5-.1-3.1-.1-4.6v-.4c-.1-3.3-.3-6.6-.6-9.5-.2-2.4-.6-4.9-1-7-.1-.7-.2-1.5-.3-2.1-.8-5.6-2.9-11.1-6.5-16.8-2.4-4.8-5.2-8.6-8.5-11.4-3.2-2.8-6.6-5.2-10.6-7.1l-.4-.2c-3.1-1.4-6.1-2.4-9.3-3-2.1-.4-5.3-1-8.6-1.4l-7.8-.9h-1.1c-.5 0-1.5 0-2.9.1l-.5.1c-.2 0-.6 0-.9 0h-.7c-1.4.1-2.7.2-4.1.2-1.4.1-2.9.2-4.3.3-1.2.1-2.3.2-3.5.2-1.2.1-2.5.2-3.7.3-4.9.4-10 .6-15.5.6h-.6c-4.8.3-9.7.8-13 1.1l-.7.1c-2.1.3-4.3.6-6.7.9-2.8.3-5.6 1-8.5 2-4.2 1-7.5 2.1-10.6 3.4l-.7.3c-4.9 2.4-9.6 5.1-14 8.1-4.8 3.1-9.2 6.5-13.3 10.2l-.3.2c-5.5 5.2-11.5 10.6-19.4 17.6-6.9 6.1-13.4 12.1-20.5 18.8l-.4.4c-2.8 3-4.9 4.2-5.9 4.6-1.3.2-2.6.5-3.8.8l-.9.2c-1.5.5-2.9 1-4.5 1.7-2.2.4-4.3 1.2-6.3 2.2-2 1.1-3.9 2.4-5.7 3.7l-.9.6c-.7.4-1.3.8-2 1.2-1.1.7-2.2 1.4-3.3 2l-.6.3-.2.2c-1.7 1-3.4 2-5.2 2.8l-1.2.7c-.5.3-.9.6-1.4.9-.8.5-1.6 1.1-2.5 1.6l-.1.1c-1.1.8-1.9 1.4-2.9 1.9l-.2.1c-3.5 2.2-6.6 5.2-9.4 8.9-2.3 3.2-4.4 6.6-6.4 10.4-4.9 9.7-7.1 20.3-6.3 31.5-.3 3.2-.2 6.7.1 10.6v.9l.4 1.4c.7 2.2 1.3 4.4 1.8 6.3.8 3.2 1.7 5.9 3 8.4-3.1 6.3-5.9 12.6-8.2 18-1.2 2.9-2.2 6.2-3 10.9l-.1.4v.5c-.4 3.6-1.8 8.7-4.4 16-2.3 6.5-4 13.1-4.9 19.7-.7 4.5-1.7 8.9-3.1 13.6-1.9 6.8-3.6 15.4-4.9 25.5-1.3 10.2-1.8 19.7-1.5 28.5-.2 7 0 13.2.7 19 0 .1-.1.3-.1.4l-.1.5-.3 5.1c-.1.8-.1 1.6-.1 2.4 0 .7 0 1.3-.1 2-.3 3.3-.3 6.4 0 9.3-.7 8.1.3 15.1 3.1 20.9l.1.3c.2.5.4 1 .6 1.5.2.4.3.7.5 1.1l.6 1.4c.4.8.7 1.7 1.3 2.6.2.7.4 1.9.5 2.8v.8c0 2.9-.2 5.9-.6 9.2l-.1 1.6c-.2 3.1-.4 6.4-.6 9.4-.7 4.8-.9 9.8-.8 15.6 0 .5 0 1 .1 1.5v.7c-.1 2.3-.1 4.5-.1 6.8v.1c.1 4.4.4 8.6 1 12.9.1 4.1.9 6.9 2.2 9 .3.4.5.9.9 1.9.7 2.1 1.8 4 3.4 5.8.7 1 1.3 2.3 1.8 3.4.5 1.2 1.1 3 1.6 4.9l.2.8c.8 2.3 1.5 4.7 1.9 7.1.8 3.6 2 6.6 3.7 9.4.6 1.6 1.3 3.3 2.2 5.3l.4 1 .7 1c1.2 1.5 2.5 2.9 4 4.3l.2.1c1.8 1.5 3.8 2.7 5.2 3.4l.3.2c2 1 4.2 1.6 6.8 1.8 1.3.4 2.6.5 4 .5 2.7.5 5.4.8 7.9 1 3.3.3 7.1.3 11-.1 4-.1 8.4-1.3 14.8-3.7l2.5-1.1.2-.1s.1 0 .1-.1c4.2-1.1 8.3-2 12.9-2.7.9 0 1.8-.1 2.6-.2s1.6-.2 2.2-.2h.3c1-.1 2.1 0 3.2.1 1.2.2 2.7.4 4.4.4 5.3-.1 10.2 0 14.2.3 1.5.1 2.7.2 3.6.3l2.7.5 2.4-1.1c28.1-11.3 43-26.1 44.2-43.9 1.3-16.8 2.5-47.3 2.3-74.4.2-49-3.2-60.8-5.7-65.4-4.3-7.8-12.5-14.6-19.8-20.6-4-3.3-10.1-8.2-11.4-10.6-.7-1.3-1.4-3.1-2.1-5 2.3.8 5 1.2 8.2.9 10.3-1 20.9-9.6 25-13.2 3.1-2.8 13.5-12.6 14.9-21.7.8-5.5 1.6-16.2 1.3-25.2.1-2.1.1-4.4 0-6.8 3.4 9.9 8.6 19.4 16.8 26.5l11.2 9.7 4.2-14.1c.2-.7.6-1.9 1.1-3.3.1.6.2 1.3.3 1.9-1 5.5-.5 9.4 1.5 12.6 2.7 4.4 8 6.4 13.4 5.1.4-.1.8-.2 1.2-.4l-5.5 6.9 5.1 2.6-5.1 6.4 10.5 5.2c.7.3 2.4 1.1 5 1.2-.9 1.4-1.8 2.8-2.4 4.2-1.5 3-2.5 5.7-3.4 8.3-.2.6-.4 1.2-.7 1.9l-.2.6c-1.5 4.2-3.3 9-6.8 15.9-1.5 2.8-3 5.7-4.6 8.6l-.3.6c-6.2 11.2-12.6 22.7-11.8 36 0 .7.1 1.5.2 2.3-.3 2.4-.4 4.6-.2 6.9.8 11.9 8.1 60.6 10.3 75.2l1.2 8c.9 6.2 1.7 11.1 2 13.6 2 15.7 21.8 39.6 37.5 49.7l2.3 1.5h2.7c4.8.1 8.7.1 11.6-.1 4-.2 8.1-.2 12.6 0l2.5.1c3.4.2 6.6.3 9.4.4h1c.8 0 1.6 0 2.4.1h2.2c2.3 0 4.4-.1 6-.2 5.6-.2 9.6-.4 13.6-.7h.3l1-.2c.2 0 .8-.1 1.2-.1.3 0 .7 0 1.1-.1 1.7-.1 3.2-.4 4.5-.8 5.1-1.2 9.5-2.6 13.4-4.3 1.9-.6 3.4-1.4 4.7-2.4.3-.2.6-.4 1-.8.1-.1.2-.1.3-.2 9.6-4.9 16.5-12.3 21.1-22.5 1.2-2.7 2.5-5.8 3.8-9.5 1.4-3.6 2.3-8 2.9-13.6l.6-1.6c.7-2.2 1.2-4.7 1.5-8v-.3c.1-.9.2-1.8.2-2.8.1-1 .2-2 .3-2.9v-.4c.3-4.2.4-9 .3-15 .1-4 .1-8.1-.1-12.4v-2.4c0-2.5.1-5 .2-7.4.1-1 .1-2 .1-2.8 0-.5 0-1 0-1.4v-1.1c0-1.7-.1-3.6-.2-5.5.1-.6.2-1.1.2-1.5 0-.2 0-.4.1-.6l.1-.4v-.8c.5-6 .2-12.5-.3-19.6z"/><path d="m318.7 448.1c0-1.6-.1-3-.2-4.4.2-1.6.2-3.1.2-4.6 0-5.7-1-10.9-2.9-15.6l-.2-1c-.8-4.3-3-8.2-6.2-11.3-.4-1.8-.9-3.7-1.4-5.4-.4-1.4-.9-2.9-1.2-4.6-.4-2.9-.8-6-1.2-9-.4-2.7-.6-5.4-.6-8.1v-24.9c0-1 .1-1.9.2-3l.1-.6c.2-.9.3-1.9.6-3.1.7-2.9 1.5-6.1 2.5-10.1.9-3.4 1.7-6.7 2.4-9.9l.4-1.6v-.3c.4-2.1.7-4.2 1.1-6.1.4-2.1.8-4.4 1.2-6.7.9-4.9 1.4-9.3 1.4-13.4 0-1.5-.1-3-.2-4.5.1-1.5.2-3 .2-4.5 0-4.2-.4-8.4-1.2-12.6 0-5.4-1.2-10.8-3.4-16.1l-.1-.1c-2.3-5.2-4.8-9.5-7.5-13.4-1.9-3-3.9-5.3-6.2-7.4l-.1-.1c-.9-.8-1.7-1.5-2.6-2.2-1.1-1-2.3-2-3.3-2.9-3.3-2.9-7.2-5.3-11.7-7.1-3.6-1.5-7.3-2.8-10.8-4l-.9-.3c-5.5-1.2-10.6-2.1-16.2-2.8-5.8-.6-11.6-.5-17.9.3-5.8.4-12 1.1-18.6 2h-.1c-5.5.9-10.4 2.1-15.1 3.5 0-.8.1-1.6.1-2.4v-36.3c0-3.4.9-6 2.8-8.2l.3-.3c1.8-2.2 3.8-4.7 5.9-7.7.6-.8 1.1-1.5 1.7-2.3 1.1-1.5 2.1-2.9 3.2-4.3 2-2 3.6-4.3 5-6.8.9-1.6 1.7-3.1 2.3-4.5l.5-.9.2-.4c3.3-7.5 4.7-15.6 4.3-23.9 0-.7 0-1.4-.1-2.1.2-2 .2-4.3.1-6.8 0-2.6-.3-5-1-7.4l-.2-.7c-.3-1.1-.6-2.1-.8-3.2v-.1c-2.8-12-9-21.7-18.6-28.9-2-2.3-4.3-4.3-6.8-5.9-.5-.3-.9-.7-1.4-1-1.3-.9-2.6-1.8-3.7-2.7l-.3-.3c-4.3-3.5-9.8-6.5-16.4-8.9-5.4-2.3-11-3.6-16.6-3.9-5.7-.2-11 .3-16.3 1.7-3.4.6-6.3 1.2-8.8 2h-.1c-2.8.9-5.4 1.6-7.3 2.1l-.6.2c-6.8 2.1-12.7 4.2-18.7 6.6-6.1 2.4-12.1 5.3-17.9 8.6-5.4 2.5-10.4 5.3-15.7 8.6-4.8 3.1-9.7 6.3-14.4 9.4-7.2 4.6-13.5 10.6-18.8 18-8.6 10.5-14.7 23.1-18.1 37.4-.7 3-1.6 6.6-2.2 10-.6 2.9-1 5.1-1.6 7.3l-4.2 21.8v.2c-1 5.8-2.1 10.9-2.5 12.8-.9 4-1.9 8.3-3 12.7l-.4 1.2v3.8l-.4.6-.4 1.6c-1.2 4.6-2.1 9.5-2.8 15.1-.6 4.7-1.1 9.7-1.5 15v.2.6c0 .1-.1.5-.1.8-.3 1.5-.5 2.9-.5 4.7l-1.7 20.6c-.4 3.1-.6 6.4-.6 9.8v18.3.8c.4 4.9.6 9.6.6 14.4 0 5.2.2 10.6.6 16.3v1.8l.6 1.2c0 3 .1 5.9.3 8.8.2 3.1.5 6.1 1 9l.1.6.1.6c.6 2.1 1 4.1 1.1 5.8v.2c.2 2.8.5 5.5.9 8 .2 2.7.8 5.1 1.8 7.2l3.5 12.3.5 1c.4.8.7 1.6.9 2.7.4 2.3 1.1 4.6 2.2 7.3.7 2.1 1.6 4.4 2.6 7.1l.2.5c.5 1.2 1 2.5 1.5 3.9.2.5.4 1 .5 1.5l.5 1.3c2.7 6.5 6 12.7 9.8 18.2 3.3 4.9 7.2 9.8 12.3 15.4 3.5 4.4 7.4 7.7 11.9 10l14.7 7 .6.3c4.7 1.9 7.8 3.3 10.7 4.7l1.2.6c2.8 1.4 5.7 2.9 8.4 4.4l.2.2.6.3c2.6 1.4 3.9 3.2 4.6 6.3l.2 1.5.2.3c0 1.5.2 3.1.6 4.5v.5l.2 1 .1.4c1.2 4.9 2.3 9.8 3.3 14.2.3 1.2.5 2.4.8 3.5 1 4.7 1.7 10 2.1 16.2v.4l1.8 8.4c.2 3.4 1.5 6.8 3.7 10.2 3.3 5.5 7.7 9 12.8 10.2h.2c1.4.3 2.6.4 3.9.4 3.8 0 7.6-1.2 11.5-3.7l.6-.4c5-3.7 8.2-8.7 9.4-14.4l.2-.9v-1c0-1.2.1-1.5.1-1.5l.5-1.5v-1.3c.2-5.2.3-9.8.2-14 .2-6.1 0-12.6-.5-19.2-.6-7.2-1.1-14.7-1.5-22.1 0-1.5-.3-2.9-1-4.2-.1-.9-.1-1.8-.1-2.7.2-3.7 1.7-5.9 4.9-7.6l.6-.4c6.4-4 12.9-8.7 19.5-14l2.3-2.3c1.9-1.2 3.8-2.6 5.7-4.5l8-8c1.6-.9 3.2-2.1 4.8-3.6l.2-.2c1-1 1.9-1.8 3.1-2.6l1-.7.6-.8c1.4-1.7 3.3-3.8 5.4-5.5l.1-.1c2.3-2.1 4.9-4.6 7.3-7l2.6-2.6c1.2-1.2 2.2-2.4 3.3-4 3.9-4.2 8.1-8.6 12.6-12.7 1-.9 2-1.9 3-2.9.4 3.4 1 6.8 1.7 10.2 1.1 5.3 1.9 10.2 2.7 16.1 1 7 2.3 13.3 4.2 19v.2c1.3 4.2 2.6 8.5 3.7 12.5l1.2 4.1.2.8.4.9c.6 1.3 1 2.3 1.3 3.5l.1.5.1.3c.9 2.7 2 5.1 3.7 7.5l.5.7.6.6c.8.8 1.4 1.6 2.2 2.6l.2.3c.8 1.1 1.4 2 2 2.9l.5 1 .9.9c2.9 2.9 5.8 5.3 8.6 7.2 3.8 2.6 8.3 4.2 13.4 4.8 1 .3 1.8.5 2.5.6 7.4 1.7 14.4-.5 19.7-6.4 1-1 1.9-2.1 2.6-3.1l.7-.2 1.8-1.8c2.5-2.5 4.6-5.4 6.2-8.4.9-1.4 1.7-2.9 2.4-4.8 3.6-3.8 5.1-8.6 4.3-13.5.2-.8.2-1.6.2-2.1.7-2.3.8-4.7.4-7.1v-.7zm-234.3-125.9c0-.9.1-1.8.2-2.7v-1.1c0-1.4-.1-2.6-.2-3.8 0-.2 0-.5.1-.7 0-.1 0-.2 0-.2.9-2.5 1.3-5.2 1.3-7.8v-5.3c0-1.8.1-2.9.2-3.5l.1-.4c.1-.8.3-1.6.5-2.6l.1-.3.1-.6c.9-4.4 1.7-8.2 2.3-11.8.9-4.2 1.7-8.2 2.3-11.7.7-3.1 1.4-6.3 2.2-9.5.1-.6.3-1.1.4-1.7.2-.7.4-1.3.5-2 .5-1.9 1-3.6 1.3-5l.6-2.1c.6-2.1 1.2-4 1.6-5.8.7-2 1.5-4.2 2.4-6.4.2-.3.3-.6.5-1 .1-.2.2-.4.3-.5l.4-.7c.5-1.1 1-2.5 1.3-4.1.7-1.7 1.3-3.4 1.9-5.2.9-2.5 1.6-4.9 2.1-7.2.7-2.4 1.4-4.4 2.3-6.1 1.4-2.5 2.6-5.2 3.7-7.7.3-.3.9-.9 2-1.6 4.2-1.9 8.4-4.4 12.7-7.3 1-.7 2.1-1.4 3.2-2.3 2.5-1.8 5.2-3.7 7.8-5.6l.4-.2c.3-.1 1.1-.5 2.6-.9.7.1 1.6.5 2.8 1.8l.1.1c.9.9 1.6 2.5 2.1 4.6.9 5.2 1.5 9.5 1.9 13.2.5 3.8 1 8 1.5 12.4v3.5l.2.9c.6 3 1.1 6.2 1.3 9.8.2 3.8.5 7.6.9 11.3-8.8 2.7-16.7 8.1-23.5 15.9-6.5 7-10.1 15.4-10.7 25.1v1.1l.5 3.4c-.3 1.7-.4 3.3-.4 4.8v.8l.8 4.9.1.6.1.5c.6 2.1 1.3 4.4 2.1 6.9l.3.9v.2l.3.9c1.5 4 3.1 7.1 4.8 9.5.6 1 1.2 1.7 1.8 2.4l.7.9c.1.1.2.2.3.4l.1.2.4.5c1.1 1.3 1.9 2.2 2.7 3.1 2.6 3.2 4 6 4 8.3v.8l1.9 11.7c.4 2.9 1.1 6 2 9.5l.4 1.5c.7 2.5 1.3 4.6 1.8 6.4l.3 1.2.5.7c.3.6.6 1.2.9 1.7-.5.4-1 .8-1.5 1.2-3.4 1.7-6.4 1.7-10.1 0-2.5-1.7-5.2-2.9-7.8-3.7-4.5-1.5-8.9-2.2-13.3-2.2-3.2 0-4.8-.2-5.6-.3-.7-.4-2.2-1.4-4.9-3.6l-.1-.1c-3-2.3-6.3-5.3-9.7-9.1-.9-1.2-1.8-2.7-2.8-4.7-1-1.9-1.7-4-2.3-5.9l-1-3.7c-.4-3.2-.8-6.4-1.1-9.7.3-2 .2-3.7 0-5.2z"/><path d="m684.5 410.3c.6-4.2.1-8.6-1.6-13.4l-.9-2.3-1.4-1.2-.3-.5c-.2-.5-.4-1.1-.7-1.7l-.3-.7c-1.4-3.9-3.5-7-6.2-9.2-1.9-1.8-3.8-4.1-5.1-5.7-2.5-2.9-5.2-5.4-7.9-7.3l-2.7-2.7c-3.9-4.3-7.7-8.4-11.4-12.3-3.4-3.5-6.8-7.2-10-10.8-.9-1.5-2-2.6-2.9-3.5l-2-2-3.1-3.6-.3-.5-.4-.4c-2.3-2.3-4.6-4.7-6.8-7.1-2.4-2.6-4.4-4.9-6-6.9l-4.8-4.8c-1.3-1.3-2.7-2.5-4.5-3.9-1.3-1.3-2.5-2.3-3.7-3.3-.1-.1-.2-.2-.5-.7l-.4-1-1.1-1.3c-1.7-2.1-3.3-3.8-4.9-5.5l-.1-.1c-1.7-1.7-3.5-3.3-5.7-5.1l-1.9-1.9c-.9-.9-1.9-1.8-3-2.5l-16-16-.4-.3c-2.3-2-4.6-4.2-6.6-6.3-2.6-2.8-6-5.6-9.6-7.9-.7-.6-1.4-1.2-2.1-1.8-1.1-.9-2.1-1.7-3.1-2.6 2.2-1.6 4.3-3.3 6.3-5.2 3.5-3.3 6.6-6.5 9.6-9.9l1-1 .1-.3c1.1-1 1.9-2.3 2.4-3.7 2.2-3.7 3.9-6.6 5.3-9.3 2.1-4.1 3.5-8.5 4.1-13.4.8-2.4 1.4-4.9 1.8-7.5.5-3.1.7-5.9.8-8.6.4-3.8.9-7.6 1.3-10.4.6-3.8.6-7.4.2-10.9.5-4.4.3-8.7-.6-12.8-.8-4.7-1.9-9.5-3.4-14.9-1.6-5.5-4-10.5-7-15l-.4-.8c-.8-2.9-2.2-5.5-4.2-7.7l-2.9-2.9c-.9-1.6-2.1-3.2-3.6-4.8l-3.7-3.7c-3.4-3.4-6.8-6.1-10.3-8.4-3.6-2.5-7.3-4.5-10.9-6.2-7.5-4-15.9-7.7-24.9-10.9-6.5-2.4-11.2-3.9-15.5-5.2-4.8-1.4-10-2.5-17-3.5-9.8-1.2-19.1-1.8-28.3-1.8-5.3-.4-10.3-.6-15.3-.6h-14.9c-2.5 0-5-.1-7-.3-1.9-.2-3.6-.5-4.9-1l-.9-.2c-2-.5-4.2-.9-6.7-1.1-2.4-.2-4.5-.3-6.7-.3h-.7-.7c-2.9.4-6.2 1.1-9.6 2-4.4 1.2-8.4 3.2-11.6 6l-4 4c-1.4 1.4-2.7 2.9-4.1 4.8-4.3 4.9-7.3 10.9-8.9 17.8-1.3 5-1.7 10.2-1.1 15.5-.4 3.9-.2 7.8.4 11.8.3 2.1.5 4.4.5 6.7v8.2c0 4.6.2 9.4.6 14.2.4 4.7.8 9.2 1.2 13.5l3.5 23.8c.4 3.8.9 7.5 1.5 11.1s1.1 6.9 1.3 9.7c0 1.7.1 3.4.3 5.5.2 1.6.3 3 .3 4.5 0 5.4.3 10.6.9 15.9.6 4.2 1.1 8.9 1.5 13.7 0 2.1.1 4.2.3 6.5.2 2.5.6 4.7 1 6.7v.4l.2.6c.7 2.5 1.2 5.1 1.6 8.4.4 3.1.8 6.1 1.2 9.1 0 2.1.1 4.2.3 6.3.2 2.3.5 4.6.9 6.7 0 1.6.1 3.2.3 4.8.2 1.8.6 3.5 1.1 5.5l.1.5.1.3c.6 2.2 1.1 4.3 1.4 6.3.3 1.6.5 3.4.8 5.1l.4 2.7.2 1c.8 2.9 1.3 5.6 1.7 8.1v.3l.1.5c.2 1.2.5 2.4.8 3.7s.6 2.7.8 4.1l.4 1.9.1.4.2.7c.5 1.5 1 3.4 1.4 5.6.4 2.5.8 5 1.2 7.4l.4 3 .2.2c.4 3.7.7 6.6 1 9.2.4 3.1.6 6.4.6 10v4.1l.7 1.7c.4.9.5 1.8.5 2.8v14.6c0 3 .2 5.9.6 8.9 0 1.7.1 3.3.3 5.1v.1c.2 1.1.2 2.3.2 3.4v6.7c0 2.8.2 5.5.7 8l.1.6c.5 2.8 1.2 5.4 1.8 8 .3 1.1.5 2.2.7 3.2v.2l.2.7c1.4 4.9 2.8 8.9 4.4 12.3l.8 1.7c.5.9 1 1.9 1.4 3l.8 1.6.1.2c.5.9 1 1.9 1.4 3l.6 1.2.8 1c1.3 1.5 2.3 3.1 2.9 4.7v.1c.7 1.8 1.2 3.6 1.3 5.3v.4l2.1 8.5.2.3c2.5 7.7 8.2 13.3 16.3 16.2l.7.2.5.1c3.8.8 7.8.4 11.5-1.2 3.9-1.6 7-4.4 9.2-8l.2-.5c2.8-5.2 3.9-10.4 3.4-15.5v-4.7c.1-1.4.1-2.8 0-4.2v-5.8c0-1.6.1-3.1.3-4.5.1-.5.1-1 .2-1.5 5.6-1.7 10.1-5.4 13.5-10.9 2.3-4 3.5-8.3 3.6-13.3.4-2.3.5-4.5.3-6.6v-.3c-.1-.4-.1-.8-.2-1.2 0-.2 0-.5.1-.7.4-2.4.5-4.6.3-6.8-.1-.8-.3-1.6-.4-2.3.1-1.1.2-2.2.2-3.4 0-1 .1-2.1.4-3l.2-1v-.8c.2-2.9.2-6 0-9.1.4-6 0-12.1-1.4-18.7l-.1-.5-.1-.5s-.2-.7-.2-2.9v-5.9-1.8c-.1-1.6-.3-3.2-.6-4.8.4-1.2.6-2.3.6-3.5 0-1.8-.5-3.5-1.4-5.1.2-1.7.4-3.5.5-5.3.1-1.9 0-3.9-.2-6.3.1-.9.2-1.9.2-2.8.1-1.7.1-3.3-.1-4.9.3.2.5.4.8.7 2.8 2.3 5.9 5.1 8.9 8.2l.9.9.8.4c.4.3 1.5 1.2 3.6 3.3 2.2 2.3 4.5 4.4 6.5 6.2 1.6 1.5 3.3 2.8 4.9 4.1l2.8 2.8c4 4 7.8 6.9 11.9 8.8 1.3.7 2.3 1.3 3.2 1.9.4.3.9.8 1.6 1.7l14.8 15.5 4.2 4.2s.3.3.7 1.4l.4 1.3.9 1.2c3.8 4.7 7.2 8.7 10.3 12.1l22.2 24.6 4.2 4.2c.3.3.7.7 1.1 1.8l.2.5.3.5c1.2 2.4 2.5 4.4 4.1 6.4.9 1.1 1.9 2.5 3.1 4.7l.9 1.3c2.1 2.4 3.8 4.9 5.1 7.6l.4.8.7.9c1.4 1.7 3.2 4 5.2 6.8l.1.1c1.7 2.3 3.9 5.2 6.5 7.8 0 .1.2.2.4.6 1.3 3 2.7 5.4 4.4 7.6 1.4 1.8 2.8 3.6 4.4 5.6l.3.3.5.5c.5.5 1.1 1.6 1.6 3.6l.2.7c.7 2.3 1.2 4.7 1.5 6.9.4 2.6 1 5.5 1.7 8.6 0 3.7.1 7.4.3 11 .2 4.1.5 8.2.9 12.2l2.4 23.4.2.9c.2 1 .4 2.6.4 4.6v6.4c0 3 .1 6 .3 9.2.2 2.5.3 5.1.3 7.2v15.8c0 5.9.4 11.8 1.3 18 .8 5.2 1.4 10.5 1.7 15.7v3.4l.4 1.3c.6 2.2 1.2 4.7 1.5 7 .4 2.5.5 5 .5 7.8v2.4l.6 1.1c.1 2.1.5 4 1.2 5.8.8 2.3 1.2 4.5 1.2 6.4v1.5l2 6.3c.4 2.8 1.9 5.4 4.2 7.4l7.5 6.9.3.3c3.2 2.8 6.8 4.2 10.6 4.2 4.2 0 8.2-1.8 11.8-5.3 5-5 7.5-10.5 7.5-16.6l-.3-5.8c.2-1 .3-2.1.3-3.2v-.7c-.2-2.5-.3-5.2-.3-7.7v-1.6c.1-2.7.1-5.3 0-8v-1c.2-6.7-.1-13.5-.9-20.1l-.4-1.6c-.1-.2-.2-.8-.2-1.9v-7.4c0-.9.1-1.5.3-2.1l.3-1.5v-1.3c0-2.9.1-5.6.3-8.5.2-3.1.3-6.2.3-9.1v-89.4c0-3.9-.3-6.2-.6-7.6v-6.4-.9c-.4-3.9-.6-8-.6-12v-3.9c0-4.2.1-8.1.3-11.8s.5-7.3.9-10.9c.9-5.3 2.8-9.2 5.9-12.5l5.8-5.1.4-.6c2.3-2.7 4.3-5.9 5.9-9.1 2.1-4 3.1-8.3 3.1-13.2 0-.2 0-.4 0-.5l.3-.5.2-1.6c.4-2.7.3-5.5-.3-8.6zm-245.9-220.6c0-.3-.1-.5-.1-.8-.1-.3-.1-.6-.2-1v-.3c-.2-1.2-.4-2.4-.6-3.5-.3-1.9-.4-4-.4-6 0-2.1-.4-4.4-1.4-7.7-.1-.5-.2-1.1-.2-1.7.1-.4.2-.8.4-1.4.6-1.2 1.2-1.7 3.5-1.7h1.5c5.3 1.3 10.8.5 16.5-2.4h.9l2.5-1.9c.9-.6 1.5-.8 2.2-.7.9.4 2 .7 3.1.8l2.4.5c2.3.4 4.7.9 7 1.4l3.3.7c4.5 1 8.2 2.2 11.2 3.7l.3.2 1.1.4c3 .9 5.8 2.2 8.7 4.2 1.2.8 2.1 2 2.8 3.6.1 1.8.4 3.5.8 5.5v.2c-.2.7-.3 1.3-.4 1.8-.7.6-1.9 1.5-3.8 2.8l-.9.7c-3 2.8-6.3 4.8-9.8 6-1.3.3-2.6.8-3.7 1.6l-.4.2c-2.3 1.5-5 2.8-8.2 4.1-3.8 1.5-7.5 3.3-11.6 5.5l-1 .5-.3.3c-1.9-.5-4.3-.8-7.3-.8-5.3-.3-10.6.7-15.8 2.8 0-.5-.1-1-.2-1.4-.2-1.3-.5-2.5-.7-3.7 0-1.7-.2-3.1-.4-4.3 0-.1.1-.3.1-.7l.2-1v-1.1c-.2-.9-.2-3-1.1-5.4z"/><path d="m1458.5 67.6v-.3l-.1-.6c-1-3.9-2.4-8.9-4.9-13.3l-1.4-5.1-.3-1c-2.3-5.8-4.9-10.8-8-15.4-2.3-3.3-4.7-5.9-7.4-8-1.2-1-2.4-2-3.5-2.9l-.1-.1c-.4-.3-.8-.6-1.2-1-.5-.4-.9-.8-1.5-1.2l-.6-.5c-2.4-1.6-4.7-2.6-7.3-3h-.3c-.2 0-.6-.1-1.1-.3-.3-.1-.6-.2-.9-.3l-.7-.2-.5-.1c-1.1-.2-2.3-.4-3.6-.6h-.1c-1.1-.2-2.3-.4-3.3-.6-.9-.2-1.6-.3-2.4-.4-1.5-.3-2.7-.5-3.6-.7l-.3-.1c-2.5-2.4-5.8-3.7-9.3-3.7h-4l-.9.9c-1.2.3-2.4.7-3.4 1.2l-8.8 3.9c-3.9 1.5-6.7 4.8-8.3 9.8l-.5 1.6v1l-.6 1.2v2.3c0 1.1.2 2.6.8 4.2l-.1.4v1l-.6 1.2v2.3c0 1.6.3 3.2 1 4.6l-.5.5c-3.5 4.1-6.4 9.2-8.7 15.7l-.2.4-.8 2.9c-.6 2.2-1.2 4.1-1.6 5.9-1 3.8-1.4 7.7-1 11.8 0 .6-.1 1.3-.4 2.5-.2.8-.4 1.6-.6 2.4-.1.7-.3 1.3-.5 2l-5.1 14.2-.2.6c-.8 2.7-1.6 5.4-2.3 7.9-1.1 3.3-1.8 6-2.4 8.4l-.2 1.2c-.3 2.5-1 5.4-1.7 8.1-1.3 4.3-2.1 7.6-2.7 10.6l-.6 2c-.6 2.2-1.2 4.1-1.7 5.9-1 3.4-1.8 6.5-2.4 9.3l-5.3 22.1c-1 4-1.9 8.1-2.8 12v.1c-.3 1.3-.6 2.7-.9 4.1s-.7 2.8-.9 4.1c-.9 3.6-1.5 6.4-2 8.9l-.1.3c-.9 3.7-1.7 7.4-2.6 11.2-.8 3.4-1.3 6-1.7 8.3-.3 1.3-.6 2.7-.9 4-.3 1.4-.6 2.7-.9 4.1-1.1 4.8-2 10-3 16.9l-.7 3.5c-.9 4.8-1.9 9.7-2.9 14.3-1.4 5.9-2.3 12.1-2.7 18.8-.4 1-.6 2.1-.7 3.4-2.4 11.3-4.1 22.6-5.2 33.5-.5 1.5-.8 3.3-.8 5.1v1.9c-.8 3.8-1.4 7.5-1.9 11.7-.2 1.4-.4 2.9-.7 4.4-.3 2-.6 4-.9 6.1l-.4 3c-.4 2.8-.7 5.6-1.1 8.4-.5-.8-.9-1.5-1.2-2.2l-6.5-12.6c-.7-1.6-1.4-3.5-1.9-5l-.1-.3-.2-.3c-.9-2.3-2.1-4.7-3.4-7.2l-.3-.6-.2-.2c-.7-1.2-1.3-2.7-1.8-4-.8-2.1-1.6-4.2-2.3-6l-5.5-10.5c-1-2.8-2-5.3-3.2-7.4l-.4-.7-.1-.1c-.8-1.7-1.4-3.5-2-5l-.4-1.1c-5-10.5-8.9-18.7-12.6-26.7-4.8-10.6-8.5-18.7-11.8-26.5-.7-2-1.4-4-2.1-6.3l-.1-.4-.2-.3c-.9-2.7-2.2-5.3-3.7-7.6-.3-1.5-.8-3-1.6-4.2-.2-.6-.4-1.1-.7-1.6-.4-1-.8-1.9-1.1-2.9l-.2-.5c-.6-1.5-1.2-2.9-1.8-4.1l-.8-1.7c-.1-.3-.3-.6-.4-.9-.2-.4-.4-.7-.5-1.1l-.2-.4c-.4-.7-.8-1.5-1.2-2.3s-.8-1.6-1.2-2.3l-.1-.2c-.7-1.2-1.4-2.8-2.1-4.8-1.5-5.1-3-9.6-4.8-13.6-1-2.2-1.9-4.5-2.8-6.7l-2.1-5-1.7-4.5-.3-.7c-.8-1.7-1.6-3.4-2.2-5l-.1-.1c-.4-.9-.8-1.8-1.2-2.7s-.8-1.7-1.2-2.6v-.1c-.8-1.7-1.6-3.4-2.2-5l-.1-.1c-.4-.9-.8-1.8-1.2-2.7s-.8-1.7-1.2-2.6l-9-21.4-.3-.5c-.9-1.8-1.8-4.1-2.6-6.3l-.8-2.1c-.8-2.1-1.6-4.4-2.6-6.6-1.8-4.4-3.3-8.1-5.2-11.8-2.2-4.5-4.7-8.6-7.6-12.4-.8-1.1-1.6-2.3-2.5-4-.8-1.4-1.3-2.6-1.8-3.8l-.1-.3c-2.1-6.2-6.5-11.1-12.8-14.1l-10-5.6-.8-.2c-2.5-.9-5-1.5-8.3-2.1-3.8-.6-7.9-.3-11.8.8l-.8.5c-1.3.2-2.6.6-3.7 1.1-4.6 1.6-9.3 4.1-14 7.7l-.6.5c-8.8 7.8-13.7 18.2-14.7 31-.4 2.9-.5 5.9-.3 8.9v.3c0 .2 0 .5.1.7 0 .2 0 .5.1.7-.2 2-.3 4.2-.2 7.1v.3c.2 1.9.3 4 .3 6.1 0 2.3.3 4.4 1 6.4.3 1.3.9 3 1.6 5.2.3.9.6 1.9 1 3.1l.4 1.2c1.8 5.2 2.5 7.8 2.7 8.5l.5 1.4.6 1.2c1.3 2.2 2.5 4.6 3.7 7.2 1.2 2.7 2.8 5.8 4.5 8.6l1.1 1.7.4.8c.5 1 1 2 1.4 3l.2.5c.7 1.6 1.4 3.1 2 4.8.8 2.4 1.8 4.9 3 7.4 1.4 3 3.2 5.4 4.7 7.3v.4l1.2 2.2.2.3c.8 1.3 1.5 2.7 2.1 4 .2.4.4.8.6 1.2.4.8.7 1.6 1.1 2.4.2.4.4.9.5 1.3.2.5.4 1 .5 1.3.1.1.1.3.2.4l.7 1.8.1.1c.6 1.4 1.6 2.6 2.7 3.5.3.6.6 1.2.6 1.8l.4 3.2.9.9c.3.8.8 1.6 1.5 2.5 6.1 10.6 11 21.1 14.6 31.5l2.2 5.2.3.5c.5.8.9 1.6 1.3 2.4.5.9 1 1.8 1.5 2.7l.1.1c.5.8.9 1.6 1.4 2.4.5.9 1 1.8 1.5 2.6 1.5 2.9 3.4 6.6 4.8 10.1l.4.9.2.2c.5 1.1 1 2.4 1.5 3.7.2.6.5 1.2.7 1.7l.8 2.2c1.5 3.8 2.9 7 4.4 10.1l.4.9c.2.3.3.7.4 1 .2.5.4 1 .6 1.5s.4 1 .6 1.5c.2.4.4.9.6 1.4l.2.5c.8 1.7 1.4 3.2 2 4.9l.4 1 .5.8c.4.7.7 1.2.9 1.6.3.8.6 1.8.9 3.1l.1.6.2.3c1 3.3 2.2 6.4 3.7 9.4l1.5 2.9c1 1.9 2 3.8 3.1 5.8v.1c.3.5.6 1 .8 1.2l.2.3c.2.3.4.7.6 1s.4.6.6.9l.2.4c.4.7.7 1.2.9 1.6l.6 1.9 1.6 1.6c.1.1.3.4.6 1l.4.7c2.1 3.6 4.6 7.5 7.2 11.5 2 3.1 3.6 6.4 4.8 9.6l.4 1.1c.4.8.8 1.7 1.4 2.6.1.2.2.4.3.7.3.5.5 1 .8 1.5l.3.6c1 1.8 2 3.6 3.2 5.6l3.3 6.6c.4.8.8 1.7 1.4 2.6.2.4.4.8.7 1.3.2.4.4.8.6 1.1l.3.5c.5.9 1 1.8 1.5 2.8.3.6.6 1.3.9 1.9l.4.6c.2.4.5.8.6 1l.2.3c.2.4.4.7.7 1 .2.3.4.6.6.9l.2.4c.4.6.7 1.1.8 1.5l.2.8.5.8c1.4 2.9 2.8 5.2 4.1 7.2.2.3.4.7.7 1 .3.4.6.9.8 1.2l.3.4c.8 1.2 1.7 2.5 2.5 3.9.7 1.1 1.3 2.3 2 3.4l.7 1.3c.2.4.5.9.7 1.3.3.5.5 1 .8 1.5 1.1 2 2.2 4.4 3.4 7.1l.2.4c1.1 2.3 2.4 4 3.9 5.3 1.7 2.3 3.8 4.6 6.7 5.9 0 .1.1.2.1.3l3.6 7.9c1.5 3.7 3 7.1 4.5 10.5l1 2.4.5 1.1c1.5 3.1 2.6 6.4 3.2 10.3.9 5.6 2.2 10.6 3.9 15.2 1.8 4.9 4.2 9.8 7.1 14.5l.4.6c1.8 2.6 2.8 5 3 7.2l1.6 7 .4.8c.5 1.1.8 2 1 3.1.3 1.5.4 2.8.4 4.1-.6 3.5.1 6.9 1.8 10 .4.8.7 1.3.7 1.7l.7 2.9 4.6 4.6 6.8 3.8 2 .3c.8.1 1.7.2 2.7.2 3.7 0 7.2-1.1 10.5-3.3 2.5-1.7 6-4.6 7.5-9.2 1-2.7 1.7-5 2.2-7.2.8-3.1 1-6.5.5-9.9 0-.4.1-.9.1-1.5l.1-.5c.2-1.4.4-2.8.4-4.4 0-1.9.2-3.5.7-4.8l.1-.2c.5-1.7 1-3.5 1.5-5.3 1.7-1 3.1-2.2 4.3-3.5l.3-.3c1.2-1.4 2.4-3 3.2-4 .8-.9 1.6-1.9 2.2-3 3.1-1.5 5.2-4.4 5.7-7.8 1.7-2.4 2.5-5.1 2.5-8.1 0-.7 0-1.1.1-1.4 1.6-3.4 2.5-7.5 2.8-12.5l.7-.6.4-3.4c.2-1.5.9-3.7 1.9-6.3 1-1.5 1.7-3 2.4-4.8l.1-.2c.5-1.6.9-3 1.4-4.6l.5-1.9c.4-1.6.9-3.3 1.4-5l.7-2.6c1.2-3.8 1.9-7.6 2.2-11.4.9-4.4 1.8-8.6 2.6-12.7l.8-4.4c1-5 1.8-9.4 2.9-13.7l.2-1.2v-1c0-1 .1-1.8.2-2.7.2-1 .4-2.2.7-3.2.6-2.3.8-4.7.8-7.3 0-1.1.1-1.7.3-2.4l.3-.8 1.8-20.3c.8-4.1 1.3-8.5 1.5-12.8.2-3.6.6-6.9 1.1-9.8 1-2.6 1.6-5 2-7.4.1-.8.3-1.5.4-2.1.3-1.5.5-2.8.7-3.6l.2-.6v-.4c1.3-7.5 2.6-14 4.1-19.9 1.7-6.5 3.3-13.7 5-21.3.4-1.7.9-3.4 1.4-5.2.2-.5.3-1 .4-1.4s.2-.8.3-1l.1-.3c1-3.1 1.6-6.2 2.1-9.1 1.2-6.5 2.6-12.3 4.3-17.7l1.5-4.8c1.1-3.4 2.2-6.9 3.3-10.5 9.9-.5 14.4-5.9 16.3-9.5 1.4-1.8 2.3-4 2.8-6.4 4.1-.2 8.1-1.9 11.2-4.8 3.1-2.1 4.9-5.6 4.9-9.3 0-1.6-.3-3.1-.9-4.5.6-1.4.9-2.9.9-4.5 0-3.7-1.7-7.1-4.7-9.2l-1.5-1.5c.1-.3.1-.6.2-.9v-.1l1.9-1.4v-5.3c.1-.2.2-.4.3-.6l.3-.7c.1-.3.2-.5.3-.8.2-.5.5-1 .6-1.5l5.3-14c1.3-2.7 2.9-6 4.3-10.4 1.3-3.5 2.2-7.4 2.7-11.8.7-2.9 1.5-5.7 2.6-8.6 1.3-3.3 2.7-6 4.1-8.2.8-1.2 2-3.1 2.9-5.6.1-.4.3-.8.5-1.1.4-.8.8-1.8 1.1-2.9 3.2-7.6 4.5-15.7 3.8-24.2 1-4.9.9-10.2-.3-16.2z"/><path clip-rule="evenodd" d="m308.9 438.7c.2-1.6.3-3.1.3-4.7 0-4.7-.8-8.8-2.3-12.3-.4-.4-.6-1.2-.6-2.3-.4-2.3-1.6-4.5-3.5-6.4-1.6-1.6-2.3-2.7-2.3-3.5-.4-1.9-.9-3.9-1.5-5.8s-1.1-3.9-1.5-5.8c-.4-3.1-.8-6.2-1.2-9.4-.4-3.1-.6-6.2-.6-9.4v-33.9c0-1.6.1-3 .3-4.4s.5-2.8.9-4.4c.8-3.5 1.7-7 2.6-10.5 1-3.5 1.8-7 2.6-10.5.4-2.3.8-4.6 1.2-6.7s.8-4.4 1.2-6.7c.8-3.9 1.2-7.8 1.2-11.7s-.4-7.8-1.2-11.7v-.6c0-4.3-.9-8.5-2.6-12.6-1.8-4.1-4-8.1-6.7-12-1.2-1.9-2.7-3.8-4.7-5.6s-3.9-3.4-5.8-5c-2.7-2.3-5.8-4.2-9.1-5.6s-6.7-2.6-10.2-3.8c-5.1-1.2-10.1-2-15.2-2.6s-10.3-.5-15.8.3c-6.2.4-12.3 1.1-18.1 2-5.8 1-11.7 2.4-17.5 4.4-.8.4-1.7.6-2.6.6-1 0-2 .2-3.2.6h-1.8c-1.6.8-2.3.2-2.3-1.8 0-1.9 0-4 0-6.1s.2-4.2.6-6.1c0-1.6.1-3 .3-4.4s.3-2.8.3-4.4v-36.3c0-5.8 1.8-10.7 5.3-14.6 1.9-2.3 3.8-4.8 5.6-7.3s3.6-5 5.6-7.3c1.6-1.6 2.8-3.2 3.8-5s1.8-3.4 2.6-5c2.7-6.2 3.9-12.9 3.5-19.9 0-1.9-.2-3.6-.6-5s-.8-2.8-1.2-4.4c-2.3-10.1-7.6-18.1-15.8-24-1.6-1.9-3.4-3.6-5.6-5-2.1-1.4-4.2-2.8-6.1-4.4-3.9-3.1-8.6-5.6-14-7.6-4.3-1.9-8.8-3-13.4-3.2-4.7-.2-9.4.3-14 1.5-2.7.4-5.4 1-7.9 1.8s-5.2 1.6-7.9 2.3c-6.2 2-12.3 4.1-18.1 6.4s-11.5 5.1-17 8.2c-5.1 2.3-10 5.1-14.9 8.2s-9.6 6.2-14.3 9.4c-6.2 3.9-11.7 9.2-16.4 15.8-7.8 9.4-13.3 20.7-16.4 33.9-.8 3.1-1.5 6.2-2 9.4-.6 3.1-1.3 6.2-2 9.4l-3.9 19.3c-.8 4.7-1.7 9.3-2.6 13.7-1 4.5-2 8.9-3.2 13.2v3.5c0 1.2-.4 2.3-1.2 3.5-1.2 4.7-2 9.4-2.6 14-.6 4.7-1.1 9.6-1.5 14.6 0 .8-.1 1.7-.3 2.6-.2 1-.3 2-.3 3.2l-1.7 21.2c-.4 2.7-.6 5.7-.6 8.8v9.4c.4 5.1.6 10.1.6 15.2s.2 10.3.6 15.8c.4.8.6 2 .6 3.5 0 2.7.1 5.5.3 8.2s.5 5.5.9 8.2c.8 2.7 1.3 5.4 1.5 7.9s.5 5.2.9 7.9c0 1.6.4 3.1 1.2 4.7l3.5 12.3c.8 1.6 1.4 3.3 1.8 5.3s1 3.9 1.8 5.8c.8 2.3 1.7 4.7 2.6 7 1 2.3 1.8 4.7 2.6 7 2.3 5.8 5.3 11.3 8.8 16.4s7.4 9.9 11.7 14.6c2.7 3.5 5.6 6 8.8 7.6l14.6 7c3.9 1.6 7.7 3.2 11.4 5s7.3 3.6 10.8 5.6c5.1 2.7 8.2 7 9.4 12.9.4.8.6 1.9.6 3.5 0 .8.1 1.5.3 2 .2.6.3 1.3.3 2 1.6 6.2 2.9 12.3 4.1 18.1s1.9 11.7 2.3 17.5l1.8 8.2c0 1.9.8 4.1 2.3 6.4 3.9 6.6 9 8 15.2 4.1 3.1-2.3 5.1-5.3 5.8-8.8 0-2 .2-3.5.6-4.7.4-7.8.3-15.5-.3-23.1s-1.1-15.1-1.5-22.5c0-.4-.1-.6-.3-.6s-.3-.2-.3-.6c-.4-2.3-.6-4.7-.6-7s0-4.7 0-7c0-7.8 3.3-13.5 9.9-17 6.2-3.9 12.5-8.4 18.7-13.4l2.3-2.3c1.9-1.2 3.6-2.4 5-3.8s2.8-2.8 4.4-4.4l2.3-2.3c.8-.8 1.6-1.6 2.3-2.3 1.6-.8 2.9-1.8 4.1-2.9 1.2-1.2 2.5-2.3 4.1-3.5 1.9-2.3 4.1-4.6 6.4-6.7s4.7-4.4 7-6.7l2.6-2.6c1-1 1.8-2 2.6-3.2 4.3-4.7 8.8-9.3 13.4-13.7 4.7-4.5 9-9.1 12.9-13.7.4-.4 1.4-1 2.9-1.8l1.2 2.3c0 2.3.4 5.1 1.2 8.2.4 5.8 1.2 11.6 2.3 17.3 1.2 5.7 2.1 11.2 2.9 16.7.8 5.8 2 11.7 3.8 17.5s3.4 11.5 5 17c.8 1.6 1.5 3.3 2 5.3.6 2 1.5 3.7 2.6 5.3 1.2 1.2 2.2 2.4 3.2 3.8s1.8 2.6 2.6 3.8c2.3 2.3 4.8 4.4 7.3 6.1 2.5 1.8 5.6 2.8 9.1 3.2.4 0 .9.1 1.5.3s1.1.3 1.5.3c4.3 1.2 8 0 11.1-3.5.8-.8 1.6-1.8 2.3-2.9.8-1.2 1.8-2 2.9-2.3 1.9-1.9 3.5-4.1 4.7-6.4.8-1.2 1.4-2.3 1.8-3.5s1-2.1 1.8-2.9c1.9-1.9 2.5-4.1 1.8-6.4-.4-2.4-.5-4.2-.3-5.8zm-102-125.1c-1.2 2.7-2.7 5.3-4.7 7.6-2.7 3.5-5.7 7-8.8 10.5s-6.2 6.8-9.4 9.9c-2.7 2.3-5.3 4.8-7.6 7.3s-4.9 5-7.6 7.3-5.5 4.8-8.2 7.3-5.7 5-8.8 7.3c-.8.4-1.8 1.2-2.9 2.3-6.6 3.9-13.4 4.1-20.5.6-2.3-1.6-4.3-2.5-5.8-2.9-3.5-1.2-7-1.8-10.5-1.8-4.7 0-7.7-.3-9.1-.9s-3.8-2.2-7.3-5c-3.5-2.7-7.2-6.2-11.1-10.5-1.6-1.9-2.9-4.2-4.1-6.7s-2.1-5-2.9-7.3l-1.2-4.7c-.4-3.5-.8-7.1-1.2-10.8s-.4-6.9 0-9.7c0-1.9-.1-3.5-.3-4.7s-.3-2.3-.3-3.5.1-2.4.3-3.8.3-2.6.3-3.8c.8-1.9 1.2-3.9 1.2-5.8s0-3.7 0-5.3c0-1.9.1-3.6.3-5s.5-2.8.9-4.4c.8-3.9 1.6-7.8 2.3-11.7.8-3.9 1.6-7.8 2.3-11.7.8-3.9 1.6-7.2 2.3-9.9.8-3.1 1.6-6 2.3-8.8.8-2.7 1.6-5.5 2.3-8.2.8-2.3 1.8-4.9 2.9-7.6.4-.8.8-1.6 1.2-2.3.4-.8.6-1.6.6-2.3.8-1.9 1.6-4 2.3-6.1.8-2.1 1.4-4.2 1.8-6.1.8-3.1 1.8-5.9 3.2-8.5 1.4-2.5 2.6-5.2 3.8-7.9 1.2-1.9 3.1-3.7 5.8-5.3 4.3-1.9 8.2-4.2 11.7-6.7s7.2-5.2 11.1-7.9c1.6-1.2 4.1-2.1 7.6-2.9 3.9 0 7.4 1.6 10.5 4.7 2.3 2.3 3.9 5.5 4.7 9.4.8 4.7 1.5 9.3 2 13.7.6 4.5 1.1 8.9 1.5 13.2v2.9c.8 3.9 1.3 7.7 1.5 11.4s.5 7.5.9 11.4c.4 2 .8 4 1.2 6.1s.8 4.2 1.2 6.1c.8 2 0 3.3-2.3 4.1l-5.8 1.8c-7.4 2-14.2 6.4-20.5 13.5-5.1 5.5-7.8 11.9-8.2 19.3l.6 4.1c.8 2.7 1.7 5.5 2.6 8.2 1 2.7 2.2 5.3 3.8 7.6.8 1.2 1.7 2.3 2.6 3.5 1 1.2 1.8 2.1 2.6 2.9 4.3 5.1 6.4 9.9 6.4 14.6l1.8 11.1c.4 2.7 1 5.5 1.8 8.2s1.6 5.5 2.3 8.2c1.2 2.7 3.1 4.9 5.8 6.4 1.9 1.6 4.3 1.8 7 .6 4.3-1.6 7-5.1 8.2-10.5.4-2.3.7-4.7.9-7s.3-4.9.3-7.6c.8-3.9 1.6-7.2 2.3-9.9.8-1.6 1.6-2.7 2.3-3.5 2.7-1.9 5.4-3.7 7.9-5.3s5-3.1 7.3-4.7c1.9-1.6 3.9-2.5 5.8-2.9s3.9-.8 5.8-1.2c2.3-.8 3.5.2 3.5 2.9 0 2.8-1 5.1-2.5 7.1zm1237.7-261.4-1.8-6.4c-2-5.1-4.3-9.5-7-13.5-1.6-2.3-3.4-4.4-5.6-6.1-2.1-1.8-4.2-3.4-6.1-5-1.2-.8-2.3-1.3-3.5-1.5s-2.3-.5-3.5-.9c-2.3-.4-4.7-.8-7-1.2s-4.5-.8-6.4-1.2c-2-.4-3.5-1.2-4.7-2.3-.8-.8-1.8-1.2-2.9-1.2-.4.4-1 .6-1.8.6s-1.6.2-2.3.6l-9.4 4.1c-1.2.4-2.1 1.8-2.9 4.1 0 1.2-.2 2.1-.6 2.9 0 .8.6 1.6 1.8 2.3 1.9.4 2.9 1.8 2.9 4.1 0 2.7-.4 4.7-1.2 5.8-.8 1.6-1.6 3-2.3 4.4-.8 1.4-1.8 2.6-2.9 3.8-2.7 3.1-5.1 7.4-7 12.9-.8 2.7-1.6 5.5-2.3 8.2-.8 2.7-1 5.7-.6 8.8 0 1.6-.2 3.2-.6 5s-.8 3.4-1.2 5l-5.3 14.6c-.8 2.7-1.6 5.4-2.3 7.9-.8 2.5-1.6 5.2-2.3 7.9-.4 3.1-1.1 6.3-2 9.6-1 3.3-1.9 6.7-2.6 10.2-.8 2.7-1.6 5.5-2.3 8.2-.8 2.7-1.6 5.7-2.3 8.8l-5.3 22.2c-1.6 6.6-3.1 13.4-4.7 20.2s-3.1 13.5-4.7 20.2c-1.2 5.5-2.3 10.9-3.5 16.4s-2.1 10.9-2.9 16.4c-1.2 6.2-2.4 12.4-3.8 18.4s-2.2 12.4-2.6 19c-.4.4-.6 1.2-.6 2.3-2.3 10.9-4.1 22.4-5.3 34.5-.4.8-.6 1.8-.6 2.9v2.9c-.8 3.9-1.5 7.9-2 12-.6 4.1-1.3 8.3-2 12.6-.4 3.1-.8 6.2-1.2 9.4-.4 3.1-1 6.2-1.8 9.4-.4 1.6-.9 3.2-1.5 5s-1.1 3.4-1.5 5-1.6 2-3.5 1.2c.4 0 0-1.1-1.2-3.2s-2.1-3.4-2.9-3.8c-.4-.8-.8-1.7-1.2-2.6-.4-1-.8-1.8-1.2-2.6s-1.1-1.9-2-3.5c-1-1.6-1.9-3.1-2.6-4.7l-6.4-12.3c-.8-1.9-1.6-4-2.3-6.1-.8-2.1-1.8-4.2-2.9-6.1-1.2-1.9-2.1-4-2.9-6.1s-1.6-4.2-2.3-6.1l-5.3-9.9c-.8-2.3-1.8-4.7-2.9-7-1.2-2.3-2.1-4.7-2.9-7-4.3-9-8.5-17.9-12.6-26.9s-8.1-17.9-12-26.9c-.8-2.3-1.6-4.7-2.3-7-.8-2.3-2-4.7-3.5-7-.4-.4-.6-1-.6-1.8s-.2-1.4-.6-1.8c-.8-1.9-1.6-3.9-2.3-5.8-.8-1.9-1.6-3.7-2.3-5.3-1.2-2.3-2.3-4.6-3.5-6.7s-2.1-4.4-2.9-6.7c-1.2-4.3-2.6-8.5-4.4-12.6s-3.4-8.1-5-12l-1.8-4.7c-1.6-3.5-3.1-7-4.7-10.5s-3.1-7-4.7-10.5l-8.8-21.1c-1.2-2.3-2.2-4.9-3.2-7.6s-2-5.5-3.2-8.2c-1.6-3.9-3.2-7.7-5-11.4s-4-7.3-6.7-10.8c-1.2-1.6-2.2-3.2-3.2-5s-1.9-3.6-2.6-5.6c-1.2-3.9-3.9-6.8-8.2-8.8l-9.4-5.3c-2.3-.8-4.7-1.4-7-1.8s-4.9-.2-7.6.6c-.4.4-1 .6-1.8.6s-1.6.2-2.3.6c-3.9 1.2-7.8 3.3-11.7 6.4-7 6.2-10.9 14.6-11.7 25.1-.4 2.3-.5 4.7-.3 7s.3 4.7.3 7c0 1.6.2 2.7.6 3.5.4 1.6 1.4 4.7 2.9 9.4 1.6 4.7 2.5 7.8 2.9 9.4 1.6 2.7 2.9 5.4 4.1 7.9s2.5 5.2 4.1 7.9l1.2 1.8c.8 1.6 1.6 3.2 2.3 5 .8 1.8 1.6 3.6 2.3 5.6.8 2.3 1.7 4.5 2.6 6.4 1 2 2.2 3.9 3.8 5.8.4.4.8.9 1.2 1.5s.6 1.3.6 2c1.2 2 2.2 4 3.2 6.1s1.8 4.2 2.6 6.1c.4.4.6.8.6 1.2s.2.6.6.6c1.9 2.3 3.1 4.9 3.5 7.6.4.4.6.8.6 1.2s.2.8.6 1.2c6.6 11.3 11.9 22.6 15.8 33.9l1.8 4.1c1.9 3.5 3.9 7 5.8 10.5s3.7 7.2 5.3 11.1c1.2 2.7 2.3 5.7 3.5 8.8s2.5 6.2 4.1 9.4c.4.4.6.8.6 1.2.8 2 1.6 3.8 2.3 5.6.8 1.8 1.6 3.6 2.3 5.6.8 1.2 1.4 2.3 1.8 3.5s.8 2.5 1.2 4.1c.8 2.7 1.8 5.5 3.2 8.2s2.8 5.5 4.4 8.2c.8 1.2 1.6 2.3 2.3 3.5.8 1.2 1.4 2.3 1.8 3.5.8.8 1.6 2 2.3 3.5 2.3 3.9 4.7 7.6 7 11.1s4.3 7.4 5.8 11.7c.8 1.6 1.7 3.2 2.6 5 1 1.8 2 3.6 3.2 5.6l3.5 7c.8 1.6 1.7 3.2 2.6 5 1 1.8 1.8 3.4 2.6 5 .8 1.2 1.6 2.3 2.3 3.5.8 1.2 1.4 2.3 1.8 3.5 1.2 2.3 2.4 4.6 3.8 6.7s2.8 4.4 4.4 6.7c1.6 2.7 3 5.4 4.4 7.9s2.6 5.2 3.8 7.9c.8 1.6 1.6 2.5 2.3 2.9 1.6 2.3 2.9 3.7 4.1 4.1 1.9.8 3.5 2.5 4.7 5.3l3.5 7.6c1.9 4.7 3.9 9.2 5.8 13.5 1.9 3.9 3.3 8.2 4.1 12.9s1.9 9.2 3.5 13.5 3.7 8.6 6.4 12.9c2.7 3.9 4.3 7.8 4.7 11.7l1.2 4.7c.8 1.6 1.4 3.4 1.8 5.6.4 2.1.6 4.4.6 6.7-.4 1.6-.2 3 .6 4.4s1.4 2.8 1.8 4.4l1.8 1.8 4.1 2.3c2.3.4 4.6-.1 6.7-1.5s3.4-2.8 3.8-4.4c.8-2 1.5-4.1 2-6.4.6-2.3.7-4.7.3-7 0-1.2.1-2.3.3-3.5s.3-2.3.3-3.5c0-2.7.4-5.4 1.2-7.9s1.4-5 1.8-7.3c.4-.8 1-1.6 1.8-2.3 1.9-.8 3.4-1.8 4.4-2.9 1-1.2 2-2.5 3.2-4.1.8-.8 1.5-1.8 2-2.9.6-1.2 1.5-2 2.6-2.3.8 0 1.2-.4 1.2-1.2 0-1.2.4-2.2 1.2-3.2s1.2-2 1.2-3.2c0-2 .2-3.5.6-4.7 1.6-3.1 2.3-7.2 2.3-12.3 0-.8.4-1.6 1.2-2.3.4-2.7 1.4-5.8 2.9-9.4.8-1.2 1.4-2.3 1.8-3.5s.8-2.5 1.2-4.1c.8-3.1 1.7-6.3 2.6-9.6 1-3.3 1.7-6.7 2-10.2 1.2-5.5 2.2-10.8 3.2-16.1s2-10.4 3.2-15.5c0-1.6.1-2.9.3-4.1s.5-2.5.9-4.1.6-3.2.6-5 .2-3.4.6-5l1.8-19.9c.8-3.9 1.3-7.9 1.5-12s.7-8.1 1.5-12c.8-1.9 1.4-4.1 1.8-6.4s.8-4.5 1.2-6.4c1.2-7 2.6-14 4.4-21.1 1.8-7 3.4-14 5-21.1.8-3.1 1.6-5.9 2.3-8.5.8-2.5 1.4-5.2 1.8-7.9 1.2-6.6 2.7-13 4.7-19 1.9-6 3.9-12.2 5.8-18.4.8-1.9 1.6-3.1 2.3-3.5h4.1c5.1 0 8.4-1.8 9.9-5.3.8-.8 1.3-1.8 1.5-2.9.2-1.2.5-2.1.9-2.9.8-1.9 1.6-3.3 2.3-4.1.8 0 1.7-.1 2.6-.3 1-.2 1.8-.3 2.6-.3 2.3 0 4.5-1 6.4-2.9.8-.4 1.2-1 1.2-1.8s-.4-1.4-1.2-1.8l-1.8-1.8c-.8 0-1.6-.1-2.3-.3-.8-.2-1.6-.3-2.3-.3-1.2-.8-1.8-1.6-1.8-2.3-.4-3.1 0-5.8 1.2-8.2 1.2-2.3 1.9-4.9 2.3-7.6 0-.8.2-1.7.6-2.6.4-1 .8-1.7 1.2-2v-1.9c.4-.8.8-1.7 1.2-2.6.4-1 .8-1.8 1.2-2.6l5.3-14c1.6-3.1 2.9-6.3 4.1-9.7 1.2-3.3 1.9-6.7 2.3-10.2.8-3.5 1.8-7 3.2-10.5s3-6.8 5-9.9c.8-1.2 1.5-2.4 2-3.8.6-1.4 1.1-2.6 1.5-3.8 3.5-8.2 4.3-17.2 2.3-26.9-1.2-4.8-2.5-8.7-4.5-11.8zm-772.9 339.5c-.4-1-.8-2-1.2-3.2-.8-2.3-2-4.1-3.5-5.3-2-1.9-4-4.2-6.1-6.7s-4.4-4.6-6.7-6.1l-3.5-3.5c-3.9-4.3-7.7-8.4-11.4-12.3s-7.3-7.8-10.8-11.7c-.4-.8-1-1.6-1.8-2.3-.8-.8-1.6-1.6-2.3-2.3l-3.5-4.1c-2.3-2.3-4.7-4.8-7-7.3s-4.5-5-6.4-7.3c-1.6-1.6-2.9-2.9-4.1-4.1s-2.5-2.3-4.1-3.5c-1.2-1.2-2.3-2.2-3.5-3.2s-2.1-2.2-2.9-3.8c-1.6-1.9-3.1-3.7-4.7-5.3s-3.3-3.1-5.3-4.7c-.8-.8-1.6-1.6-2.3-2.3-.8-.8-1.6-1.4-2.3-1.8-2.7-2.7-5.5-5.5-8.2-8.2s-5.5-5.5-8.2-8.2c-2.7-2.3-5.3-4.8-7.6-7.3s-5.1-4.8-8.2-6.7c-2.7-2.3-5.6-4.7-8.5-7s-5.8-4.7-8.5-7c-.8-.4-2-1.4-3.5-2.9-.8-.8-.8-1.6 0-2.3 1.9-.8 3.6-1.8 5-2.9 1.4-1.2 2.8-2.1 4.4-2.9 4.3-2.3 8.1-5.1 11.4-8.2s6.3-6.2 9.1-9.4c.4-.8.8-1.3 1.2-1.5s.6-.5.6-.9c1.9-3.1 3.8-6.4 5.6-9.9s2.8-7.2 3.2-11.1c.8-2.3 1.4-4.7 1.8-7s.6-4.9.6-7.6c.4-3.9.9-7.7 1.5-11.4s.5-7.5-.3-11.4c-.8-4.7-1.9-9.4-3.2-14-1.4-4.7-3.4-9-6.1-12.9l-1.2-2.3c-.4-1.9-1.2-3.5-2.3-4.7-1.2-1.2-2.3-2.3-3.5-3.5-.8-1.6-1.8-2.9-2.9-4.1-1.2-1.2-2.3-2.3-3.5-3.5-2.7-2.7-5.7-5.2-8.8-7.3s-6.4-4-9.9-5.6c-7.4-3.9-15.4-7.4-24-10.5-5.1-1.9-10-3.6-14.9-5s-10-2.4-15.5-3.2c-9.4-1.2-18.5-1.8-27.5-1.8-5.1-.4-10-.6-14.9-.6s-9.8 0-14.9 0c-2.7 0-5.4-.1-7.9-.3s-5-.7-7.3-1.5c-1.6-.4-3.3-.7-5.3-.9s-3.9-.3-5.8-.3c-2.7.4-5.6 1-8.5 1.8s-5.6 2.1-7.9 4.1c-1.2 1.2-2.3 2.3-3.5 3.5s-2.3 2.5-3.5 4.1c-3.5 3.9-5.8 8.6-7 14-1.2 4.7-1.4 9.6-.6 14.6.4 2.7.6 5.5.6 8.2v8.2c0 4.3.2 8.8.6 13.4.4 4.7.8 9.2 1.2 13.5l3.5 23.4c.4 3.5.9 7.1 1.5 10.8s1.1 7.3 1.5 10.8c0 1.6.1 3.2.3 5s.3 3.6.3 5.6c0 5.1.3 9.9.9 14.6s1.1 9.6 1.5 14.6c0 2 .1 4 .3 6.1s.5 4.2.9 6.1c.8 3.1 1.4 6.3 1.8 9.7.4 3.3.8 6.5 1.2 9.6 0 2 .1 4 .3 6.1s.5 4.4.9 6.7c0 1.6.1 3 .3 4.4s.5 2.8.9 4.4c.8 2.7 1.4 5.4 1.8 7.9s.8 5.2 1.2 7.9c.8 3.1 1.5 6.2 2 9.4.6 3.1 1.3 6.2 2 9.4.8 2.3 1.4 4.8 1.8 7.3s.8 5 1.2 7.3c.4.4.6 1 .6 1.8.4 3.9.8 7.6 1.2 11.1s.6 7.2.6 11.1v2.3c.8 2 1.2 4.1 1.2 6.4v6.4 8.2c0 2.7.2 5.5.6 8.2 0 1.6.1 3.1.3 4.7s.3 3.1.3 4.7v6.7c0 2.1.2 4.4.6 6.7.8 3.9 1.7 7.7 2.6 11.4 1 3.7 2.2 7.3 3.8 10.8.8 1.6 1.6 3.1 2.3 4.7.8 1.6 1.6 3.1 2.3 4.7 1.9 2.3 3.4 4.8 4.4 7.3s1.7 5.2 2 7.9l1.8 7c1.6 5.1 5.1 8.6 10.5 10.5 1.9.4 3.9.2 5.8-.6s3.5-2.1 4.7-4.1c1.9-3.5 2.7-7 2.3-10.5v-15.2c0-1.9.1-3.8.3-5.6s.3-3.6.3-5.6c0-1.2 1-2.1 2.9-2.9.4-.4 1.2-.6 2.3-.6 3.9-.8 7-3.1 9.4-7 1.6-2.7 2.3-5.8 2.3-9.4.4-1.6.5-3 .3-4.4s-.5-2.8-.9-4.4c0-.8-.1-1.7-.3-2.6-.2-1-.1-2 .3-3.2.4-1.9.6-3.9.6-5.8s.2-3.7.6-5.3c.4-5.1 0-10.5-1.2-16.4-.4-1.2-.6-3.1-.6-5.8 0-1.9 0-3.9 0-5.8s-.2-3.9-.6-5.8v-2.9c.8-.8.8-1.6 0-2.3-2-1.9-2.5-4.5-1.8-7.6.8-3.9 1.3-7.7 1.5-11.4s-.3-7.5-1.5-11.4c-.4-.4-.6-1.2-.6-2.3-.8-9.4-2.1-17.9-4.1-25.7v-.6l.6-.6c0-.4.2-.6.6-.6l3.5 3.5c1.2 1.6 2.4 3 3.8 4.4l4.4 4.4c3.1 3.1 6.3 6 9.6 8.8 3.3 2.7 6.5 5.7 9.6 8.8 1.2.8 2.9 2.3 5.3 4.7 1.9 2 4 3.9 6.1 5.8 2.1 2 4.4 3.7 6.7 5.3.8.8 1.2 1.4 1.2 1.8 3.1 3.1 6.2 5.5 9.4 7 1.6.8 3 1.7 4.4 2.6 1.4 1 2.6 2.2 3.8 3.8l14 14.6 4.1 4.1c1.2 1.2 2.1 2.7 2.9 4.7 3.1 3.9 6.4 7.8 9.9 11.7l22.2 24.6c1.2 1.2 2.4 2.4 3.8 3.8s2.4 3 3.2 5c.8 1.6 1.8 3.2 3.2 5s2.6 3.6 3.8 5.6c2.3 2.7 4.5 5.8 6.4 9.4 1.9 2.3 3.8 4.8 5.6 7.3s3.6 4.8 5.6 6.7c.8.8 1.6 1.9 2.3 3.5.8 1.9 1.8 3.8 3.2 5.6s2.8 3.6 4.4 5.6c1.9 1.9 3.3 4.7 4.1 8.2.8 2.7 1.4 5.5 1.8 8.2s1 5.6 1.8 8.8c0 3.9.1 7.8.3 11.7s.5 7.8.9 11.7.8 7.8 1.2 11.7.8 7.8 1.2 11.7c.4 1.9.6 4.1.6 6.4v6.4c0 2.7.1 5.6.3 8.5s.3 5.6.3 7.9c.4 1.6.5 2.9.3 4.1s-.3 2.3-.3 3.5v8.2c0 5.5.4 11 1.2 16.7.8 5.6 1.4 11.2 1.8 16.7v2.3c.8 2.7 1.4 5.6 1.8 8.5s.6 5.9.6 9.1c.4.8.6 1.8.6 2.9 0 1.2.2 2.1.6 2.9 1.2 3.5 1.8 6.8 1.8 9.9l1.8 5.8c0 .8.4 1.6 1.2 2.3l7.6 7c3.1 2.7 6.2 2.5 9.4-.6 3.1-3.1 4.7-6.4 4.7-9.9-.4-6.6-.5-13.1-.3-19.3s-.1-12.5-.9-18.7c-.4-1.2-.6-2.7-.6-4.7v-11.7c0-1.6 0-3.1 0-4.7s.2-3.1.6-4.7c0-3.1.1-6.1.3-9.1.2-2.9.3-5.8.3-8.5v-80.1c0-3.1-.2-5.3-.6-6.4v-7.6c-.4-4.3-.6-8.6-.6-12.9s0-8.6 0-12.9.1-8.4.3-12.3.5-7.8.9-11.7c1.2-7.4 4.1-13.4 8.8-18.1l5.3-4.7c1.9-2.3 3.6-4.9 5-7.6s2-5.6 2-8.8c0-1.9.2-3.3.6-4.1.4-2.7 0-5.6-1.2-8.8-1.5-1.4-1.9-2.5-2.3-3.4zm-157.9-217.3c-.8 5.1-1.5 8.1-2 9.1-.6 1-2.8 2.8-6.7 5.6-4.3 3.9-9 6.6-14 8.2-.4 0-.6.1-.6.3s-.2.3-.6.3c-3.1 2-6.4 3.6-9.9 5s-7 3-10.5 5c-2.3 2-5.1 2.5-8.2 1.8-1.2-.4-2.9-.6-5.3-.6-6.2-.4-12.5 1.6-18.7 5.8-.4.4-.8.6-1.2.6s-.8.2-1.2.6-.9.5-1.5.3-.9-.5-.9-.9c-1.2-3.1-1.8-6.2-1.8-9.4.4-1.2.5-2.3.3-3.5s-.5-2.5-.9-4.1c0-1.6-.1-2.9-.3-4.1s-.1-2.5.3-4.1c0-1.2-.2-1.9-.6-2.3-.4-2.3-.8-4.7-1.2-7s-.6-4.9-.6-7.6c0-1.2-.4-2.9-1.2-5.3-.4-1.9-.6-4.1-.6-6.4s0-4.5 0-6.4c0-1.2.4-2.9 1.2-5.3 2.3-5.1 6.4-7.6 12.3-7.6h2.9c3.5 1.2 7.4.6 11.7-1.8.4-.4.8-.6 1.2-.6 3.1-2.3 6.6-3.1 10.5-2.3.4 0 .7.1.9.3s.5.3.9.3c4.3.8 8.8 1.7 13.4 2.6 4.7 1 9.2 2.4 13.4 4.4 3.9 1.2 7.6 2.9 11.1 5.3 3.5 2.3 5.8 5.7 7 9.9 0 1.6.2 3.3.6 5.3s.6 4.1.6 6.4v2.2zm1322.5 228.1c-1.2-5.5-3.5-10.7-7-15.8-2-2.7-4.1-4.7-6.4-5.8-.8-.8-1.9-1.4-3.2-1.8-1.4-.4-2.6-.8-3.8-1.2-3.9-1.2-7.8-1.2-11.7 0-1.6.4-3.1.9-4.7 1.5s-2.9 1.3-4.1 2c-3.1 1.6-6.2 1.4-9.4-.6-.4 0-.8-.2-1.2-.6-1.6-1.2-3.1-2-4.7-2.6s-3.3-1.3-5.3-2c-.8-.4-1.8-.6-2.9-.6-1.2 0-2.1 0-2.9 0-.8.4-1.8.6-2.9.6-4.3-.8-8.2.4-11.7 3.5-.4.4-1.1.8-2 1.2-1 .4-1.9 1-2.6 1.8-1.2.8-2.9 1.6-5.3 2.3-1.6 0-3.2.1-5 .3s-3.6.5-5.6.9c-3.9.4-7.9.9-12 1.5s-8.3 1.1-12.6 1.5c-2.7.4-5.4.8-7.9 1.2s-5 .8-7.3 1.2c-5.1.8-10.1 1.8-15.2 2.9-5.1 1.2-10.1 2.1-15.2 2.9-1.2.4-2.9.6-5.3.6l-10.5 1.8c-1.6.4-3.2.8-5 1.2s-3.6.8-5.6 1.2l-7.6 1.8c-1.6 0-2.7-.8-3.5-2.3v-7c0-4.7-.1-9.4-.3-14-.2-4.7-.3-9.5-.3-14.6 0-4.3-.2-8.6-.6-12.9s-.6-8.6-.6-12.9c-.4-.4-.6-.8-.6-1.2l-3.5-24.6c-.4-3.5-.9-7-1.5-10.5s-1.5-7-2.6-10.5v-1.2c-.4-1.9.4-3.7 2.3-5.3 1.2-1.2 2.3-1.8 3.5-1.8 4.3-1.9 8.2-3.1 11.7-3.5 2.3-.8 4.7-1.5 7-2 2.3-.6 4.7-1.1 7-1.5 1.9-.8 3.7-.6 5.3.6.8.8 1.6 1.4 2.3 1.8 1.9.8 4 1.8 6.1 2.9 2.1 1.2 4.2 2.1 6.1 2.9 4.3 1.2 8.2 1 11.7-.6 1.6-.8 2.5-1.4 2.9-1.8 1.6-1.2 3.5-1.4 5.8-.6l3.5 1.8c2.3 1.2 5.5 1.4 9.4.6 2.3-.8 4.1-1.9 5.3-3.5.8-1.2 1.4-2.2 1.8-3.2s.8-1.8 1.2-2.6c2.7-5.1 5.6-8.6 8.8-10.5 1.2-.8 2.5-1.9 4.1-3.5 3.1-2.3 5.5-5.3 7-8.8.4-.8.8-1.7 1.2-2.6.4-1 .8-1.8 1.2-2.6.8-1.6.8-2.9 0-4.1 0-.4-.1-.8-.3-1.2s-.1-.8.3-1.2c.8-1.2 1.6-2.3 2.3-3.5.8-1.2 1.9-1.8 3.5-1.8 1.2-.4 1.8-1.4 1.8-2.9-.4-1.9-1.1-3.8-2-5.6-1-1.8-2-3.4-3.2-5-.4-.4-1.2-.4-2.3 0-1.2 0-2.1-1.4-2.9-4.1 0-1.6-.8-3.1-2.3-4.7l-7.6-5.3c-5.1-3.1-10.1-4.1-15.2-2.9-2.3.4-4.7.8-7 1.2s-4.7 1.4-7 2.9c-1.6.8-3 1.4-4.4 1.8s-3 .8-5 1.2l-12.9 1.8c-3.9.8-8.1 1.5-12.6 2-4.5.6-8.9 1.3-13.2 2-1.2.4-2.7.6-4.7.6-2.7.8-3.7-.2-2.9-2.9.8-1.9 1.2-4 1.2-6.1s0-4.2 0-6.1c-.4-3.5-.5-7-.3-10.5s.3-7 .3-10.5c0-2.3.3-4.6.9-6.7s1.1-4.2 1.5-6.1c1.6-2.3 2.9-3.9 4.1-4.7l4.1-2.3c1.6-.8 2.9-1.6 4.1-2.3 1.2-.8 2.3-1.6 3.5-2.3 1.2-.8 2.2-1.6 3.2-2.3 1-.8 1.8-1.4 2.6-1.8 5.8-4.7 12.3-8.2 19.3-10.5 5.1-1.9 9.4-3.9 12.9-5.8 1.2-1.2 2.4-2.2 3.8-3.2s2.8-1.8 4.4-2.6c.8-.4 1.5-.8 2-1.2.6-.4 1.1-.6 1.5-.6 2.3-1.6 3.9-1 4.7 1.8l1.8 4.1c.4 2 .7 4 .9 6.1s.3 4.2.3 6.1c.8 6.2 1.9 11.9 3.5 17 1.2 3.1 3.5 5.7 7 7.6.4 0 .9.1 1.5.3s1.1.1 1.5-.3c4.7 0 7.8-1.9 9.4-5.8.8-1.6 1.2-3.1 1.2-4.7l1.8-12.3c0-3.5.3-6.9.9-10.2s1.3-6.7 2-10.2c.4-2.7 1.8-5.6 4.1-8.8l4.7-5.3c2.7-1.9 5.2-4.2 7.3-6.7s4-5.2 5.6-7.9c1.6-1.9 3-3.9 4.4-5.8s3-3.7 5-5.3c.8-.8 1.3-1.4 1.5-1.8s.5-.8.9-1.2c.8-.8 1.3-1.4 1.5-1.8s.5-.8.9-1.2c2.7-1.9 5.5-4.9 8.2-8.8 1.2-1.2 1.8-2.7 1.8-4.7.4-1.6.6-3.1.6-4.7s.2-3.1.6-4.7.4-3.5 0-5.8c-1.2-2.7-1.2-5.3 0-7.6.4-2.3 0-4.5-1.2-6.4-4.7-5.1-9.7-8.8-15.2-11.1-3.5-1.2-7-1.8-10.5-1.8-6.2.8-11.9 2.7-17 5.8-2 .8-4.1 2.1-6.4 4.1-.8.8-2.5 1.6-5.3 2.3l-19.9 7c-2.7 1.2-5.7 2.3-8.8 3.5s-6 2.5-8.8 4.1c-7 3.5-14.4 5.8-22.2 7l-2.9 1.2c-7.4 1.6-15 2.9-22.8 4.1s-15.6 2-23.4 2.3c-1.6 0-2.9.2-4.1.6-3.9.4-7.9 1-12 1.8s-8.3 1.6-12.6 2.3c-2.3.8-4.1 1.2-5.3 1.2-2.3 0-3.7-.8-4.1-2.3-.8-1.6-1.8-2.5-2.9-2.9l-1.8-1.8c-.4-1.6-1.1-2.7-2-3.5-1-.8-1.9-1.4-2.6-1.8-1.2-.8-2.2-1.2-3.2-1.2s-1.9-.2-2.6-.6c-1.2 0-2.1-.6-2.9-1.8-.8-.8-1.4-1-1.8-.6-1.6 1.6-2.9 2-4.1 1.2-.8-.4-1.8-.6-2.9-.6h-1.8c-1.6 0-2.7.2-3.5.6-2.7 1.6-5.6 2.8-8.5 3.8s-6.1 1.3-9.6.9c-3.9 0-7.5.5-10.8 1.5s-6.5 2.8-9.6 5.6l-1.8 1.8c-7 5.8-10.3 13.5-9.9 22.8.4 3.9.9 7.8 1.5 11.7s1.5 7.8 2.6 11.7c.8 3.9 1.8 7.9 2.9 12 1.2 4.1 2.3 8.3 3.5 12.6.4 2.7 1.4 5.8 2.9 9.4 1.6 2.7 2.5 5.5 2.9 8.2 2.3 9.4 4.1 18.7 5.3 28.1.4 1.6.8 3.3 1.2 5.3s.6 3.9.6 5.8c0 1.2.2 2 .6 2.3.8 2 1.5 3.9 2 5.8.6 2 1.1 3.9 1.5 5.8 1.2 3.9 2.1 7.8 2.9 11.7s1.6 8 2.3 12.3v1.8c.8 1.6.2 2.7-1.8 3.5-.8.8-2 1.6-3.5 2.3-2.3 1.6-4.6 3.2-6.7 5s-4 3.8-5.6 6.1c-.8 1.2-1.6 2.3-2.3 3.5-.8 1.2-1.2 2.5-1.2 4.1-.4 1.6-.8 3.1-1.2 4.7s0 3.3 1.2 5.3c.8 1.2.8 2.3 0 3.5-.4 1.6 0 3.1 1.2 4.7.8.8 1.6 2 2.3 3.5 2.3 2.7 4.9 5.3 7.6 7.6 1.9 1.6 4.1 2.5 6.4 2.9 2.7.4 4.7 1.8 5.8 4.1 1.2 2.3 2.4 4.6 3.8 6.7s2.8 4.4 4.4 6.7c.8 2 1.8 4 3.2 6.1s2.8 4.2 4.4 6.1c2.7 3.1 4.1 6.8 4.1 11.1v3.5s.2 2.3.6 3.5c.4 3.1.8 6.4 1.2 9.9s.8 7 1.2 10.5l1.8 8.2c.4 2.7.8 5.4 1.2 7.9s.8 5 1.2 7.3l5.3 26.3c1.6 5.8 1.8 12.3.6 19.3-.4 2.7-.7 5.5-.9 8.2s-.1 5.5.3 8.2c0 5.8 1.2 11.5 3.5 17l2.9 6.4c.4 1.2 1.4 3.3 2.9 6.4 1.6 1.9 2.9 4.1 4.1 6.4s2.3 4.7 3.5 7c.8 1.6 1.5 3.1 2 4.7.6 1.6 1.1 3.1 1.5 4.7.8 3.9 1.6 7.6 2.3 11.1.8 3.5 1.4 7 1.8 10.5.8 4.7 2.1 8.4 4.1 11.1 3.5 5.8 8 7.6 13.4 5.3 1.6-.8 3.1-2.3 4.7-4.7.8-2.3 1.2-4.3 1.2-5.8 1.2-3.9 1.4-8.2.6-12.9-.4-3.1-.6-5.9-.6-8.5 0-2.5-.2-5.2-.6-7.9 0-3.5 1-7.6 2.9-12.3.8-1.6 1.6-2.7 2.3-3.5.8-.8 2.3-2 4.7-3.5 3.1-1.6 6.1-3.1 9.1-4.7 2.9-1.6 5.9-2.5 9.1-2.9l4.7-1.8c7-4.3 14.6-7.2 22.8-8.8.8-.4 1.8-.8 2.9-1.2 1.2-.4 2.1-.8 2.9-1.2 3.9-1.6 8.4-2.9 13.4-4.1l12.3-1.8c4.3-.8 8.4-1.5 12.3-2 3.9-.6 7.8-1.3 11.7-2 3.5-1.2 6.8-1.8 9.9-1.8 2.3 0 4.1-.4 5.3-1.2 2.7-1.2 5.6-2.1 8.5-2.9s5.7-1.4 8.5-1.8c.8-.4 1.5-.6 2-.6.6 0 1.1-.2 1.5-.6 1.9-.8 4-1.5 6.1-2 2.1-.6 4.4-1.1 6.7-1.5 1.2 0 2.9-.4 5.3-1.2 4.3-1.2 8.6-2.4 12.9-3.8s8.6-2.4 12.9-3.2c2.3-.8 4.7-1.6 7-2.3 2.3-.8 4.5-1.9 6.4-3.5.4-.4 1.4-.6 2.9-.6 1.2.8 2.1.4 2.9-1.2.8-1.9 1.9-3.1 3.5-3.5 1.6-.8 2.3-1.9 2.3-3.5.4-.8.8-1.7 1.2-2.6.4-1 .8-1.8 1.2-2.6.4-1.2.8-2.2 1.2-3.2s.8-2 1.2-3.2c.3-1.3.3-2.4-.5-3.6zm-225.6-178.4c-1.2 0-2-.2-2.3-.6-.8 0-1.6-.6-2.3-1.8v-9.4c0-2.3.1-4.7.3-7s.5-4.5.9-6.4v-1.2l1.2 1.2c0 .4.1.8.3 1.2s.3 1 .3 1.8c0 3.9 1 8.4 2.9 13.4.4.8.6 1.7.6 2.6 0 1 .2 1.9.6 2.6-.2 1.7-1 2.8-2.5 3.6zm-523.2 122.7c-.2-4.4-.5-8.8-.7-12.9-.2-4.2-.5-8.2-.8-12.1-.2-4.6-.6-9.4-1-14.2s-.8-9.6-1.1-14.3c0-1.5 0-3.2-.2-5.2s-.4-4.3-.7-6.8c-.7-5-1-8.6-.9-10.9-.7-7.3-1.5-14.5-2.6-21.5-1.1-7.1-2.2-13.9-3.3-20.4-1.5-8.2-3.4-16.5-5.8-24.8-2-5.2-3.4-10-4.2-14.5-.4-1.6-1.2-3.6-2.4-6.1-1.6-4.1-3.3-7.9-4.9-11.4-1.7-3.6-3.3-7.2-5-11-2.5-5.3-5.1-10.3-7.6-15.1-2.6-4.7-5.3-9.5-8.4-14.4-1.7-3.4-4.3-6.9-7.7-10.4-5.1-6.2-10.5-11.8-16.1-17.1-5.6-5.2-11.4-9.4-17.3-12.8-1.3-.9-2.6-1.9-3.9-2.8-1.3-1.2-2-2.6-2-4.1-.1-2.3-.2-4.6-.2-6.8-.1-3-.3-6-.6-8.9s-.8-5.9-1.3-8.7c-.6-4.3-2.4-8.8-5.4-13.6-1.8-3.7-3.9-6.7-6.4-8.9s-5.3-4.1-8.6-5.8c-2.4-1.1-4.8-1.9-7.2-2.4s-5-.9-7.8-1.2c-2.6-.3-5.2-.6-7.8-.9-.4 0-1 0-1.8.1s-1.6.1-2.4.1c-5.3.3-10.4.7-15.5 1-5.1.4-10.5.6-16.3.6-4.3.3-8.7.7-13 1.1-2.1.3-4.4.6-6.9.9s-4.8.9-7 1.7c-3.4.8-6.6 1.8-9.7 3.1-4.4 2.2-8.8 4.7-13.1 7.5s-8.4 5.9-12.2 9.3c-6.2 5.9-12.8 11.8-19.7 17.9s-13.7 12.3-20.3 18.6c-3.8 4-7.4 6.5-10.9 7.4-1.3.1-2.6.4-3.9.8s-2.8 1-4.6 1.8c-1.7.2-3.2.7-4.5 1.4s-2.9 1.7-4.7 3.1c-2.2 1.4-4.5 2.9-6.9 4.3-2.4 1.5-4.6 2.7-6.8 3.7-1.3.8-2.5 1.6-3.5 2.3-1.1.8-2.2 1.6-3.5 2.4-2.5 1.6-4.8 3.8-6.8 6.5s-3.9 5.8-5.6 9.1c-4.4 8.7-6.1 18.1-5.1 28.1.7 2.2 1.4 4.6 2 7.1.6 2.6 1.4 4.9 2.6 6.9 2.8 4 2.8 9.2.2 15.7-3 6-5.8 12.2-8.6 18.6-1 2.4-1.8 5.3-2.4 8.8-.5 4.8-2.2 10.8-4.9 18.4-2.1 5.9-3.6 11.9-4.5 18-.7 4.6-1.8 9.5-3.3 14.8-1.8 6.3-3.4 14.3-4.7 24.1-1.8 14-2 26.5-.8 37 .4 3.3.3 7-.2 11.2-.2 3.1-.3 6.1-.5 9.2-.6 6.5.1 12.1 2.3 16.6.4.9.9 2 1.4 3.2s.9 2.2 1.4 3.1c.8 1.1 1.4 3.8 1.9 8-.1 2.7-.1 5.8-.2 9.1 0 3.3-.2 6.7-.6 10.3-.2 3.7-.4 7.4-.7 11-.7 5.1-.9 9.9-.8 14.4s.5 8.6 1 12.3c.1 2.6.4 4.1.8 4.7.8 1.2 1.4 2.5 1.9 3.8.4 1.3 1.1 2.3 1.8 2.9 1.2 1.7 2.3 3.6 3.2 5.7s1.6 4.3 2.1 6.4c.9 2.6 1.7 5.4 2.3 8.3s1.6 5.2 2.9 7c.8 2.1 1.6 4.1 2.4 6 .9 1.2 1.9 2.2 2.8 3s2.1 1.5 3.4 2.2c1.3.6 2.9.9 4.5.9.9.4 1.8.5 2.6.3 2.6.5 5.4.9 8.5 1.2 3 .3 6.2.2 9.5-.1 3.3-.1 7.3-1.3 11.9-3.1.7-.3 1.4-.6 2.1-.9s1.2-.5 1.6-.6c4.9-1.3 9.7-2.3 14.5-3 1.8-.1 3.7-.3 5.6-.4s3.7 0 5.2.2c.8.2 1.7.3 2.7.3 5.6-.1 10.6 0 15 .3 1.6.1 3.1.2 4.5.4 19.4-7.8 37.2-19.3 38.4-35.9 2.8-37.3 4.1-113.9-2.2-125.5-6.3-11.5-26.8-22.7-31.4-31.4-4.5-8.7-7.9-26.1-17.9-31.4s-12-6.8-17.9-9-7.9-9.1 0-13.4 16.1-4.6 26.9 4.5c10.7 9.1 11.2 23.5 22.4 22.4s30.1-18.6 31.4-26.9c1.3-8.2 2-26.9 0-33.6s-.9-23.4-2.2-35.8 1-24.8 6.7-24.6c5.7.1 8 7 9 22.4.9 15.4 2.9 45.4 20.2 60.5 2.4-8 18.7-47.4 20.2-56 1.4-8.6 11.4-28.2 20.2-22.4 8.8 5.7-.1 17.3-4.5 33.6s-19.4 47.9-15.7 53.8 22.2-15 22.4-17.9-1.1-13.9 2.2-13.4c3.4.4 18.7 4.8 15.7 15.7-3 10.8-24.6 38.1-24.6 38.1s4.2 2.1 11.2-6.7 9.5-7.3 9-15.7 7-9.5 9-4.5c1.9 5.1 5.3 20.2 0 26.9s-18.6 19-22.4 26.9-4.4 13.5-11.2 26.9-16.6 26.6-15.7 40.3 11.6 83 13.4 96.3c1.3 9.9 16.2 32 33.2 42.9 4.5.1 8.1.1 10.8-.1 4.3-.2 8.8-.2 13.6 0 4.7.2 9 .4 12.7.5s7.1.1 10.1-.1c4.5-.2 8.9-.4 13.4-.7 1.1-.2 2.2-.3 3.5-.4 1.2-.1 2.2-.3 2.8-.5 4.3-1 8.5-2.3 12.6-4 1-.3 1.9-.7 2.5-1.2.6-.4 1.2-.9 1.8-1.3 7.5-3.6 13.4-9.1 17.6-18.4 1.2-2.6 2.4-5.6 3.6-8.9s2-7.3 2.4-12.1c.1-1.2.4-2.1.8-2.6.6-1.8.9-3.8 1.1-6s.3-4.3.5-6.1c.4-5.1.4-11 .2-17.6s-.1-13.2.2-19.7c.1-1.5.1-3 .2-4.5-.1-5.8-.4-12.1-.9-18.9-.7-7.4-1-14.1-1.1-20.6z" fill="#cb0c36" fill-rule="evenodd"/></svg>