<?xml version="1.0" standalone="no"?>
<!DOCTYPE svg PUBLIC "-//W3C//DTD SVG 20010904//EN"
 "http://www.w3.org/TR/2001/REC-SVG-20010904/DTD/svg10.dtd">
<svg version="1.0" xmlns="http://www.w3.org/2000/svg"
 width="700.000000pt" height="700.000000pt" viewBox="0 0 700.000000 700.000000"
 preserveAspectRatio="xMidYMid meet">
<metadata>
Created by potrace 1.14, written by Peter Selinger 2001-2017
</metadata>
<g transform="translate(0.000000,700.000000) scale(0.100000,-0.100000)"
fill="#000000" stroke="none">
<path d="M3531 5586 c-12 -29 -54 -102 -93 -162 -39 -60 -104 -167 -146 -239
-41 -71 -142 -240 -225 -375 -175 -283 -294 -491 -303 -526 -3 -13 -10 -24
-15 -24 -5 0 -70 122 -145 271 -74 149 -146 289 -160 310 -28 45 -139 114
-257 159 -43 17 -171 55 -285 84 -304 79 -398 120 -514 223 -28 24 -57 43 -66
41 -10 -2 -26 -21 -37 -43 -19 -38 -20 -59 -19 -405 1 -342 13 -661 34 -913
l9 -107 81 -118 c83 -119 292 -412 447 -626 47 -65 137 -184 200 -264 62 -80
110 -149 106 -153 -5 -4 -44 -22 -88 -40 -68 -27 -92 -44 -155 -108 -87 -87
-187 -232 -221 -318 -12 -33 -24 -89 -27 -129 -4 -68 -3 -73 24 -101 16 -17
50 -38 77 -48 55 -19 51 -11 72 -195 27 -237 59 -302 172 -353 74 -33 199 -59
289 -60 84 0 133 19 272 111 146 96 196 102 286 33 69 -53 82 -58 226 -82 181
-29 421 -36 534 -15 125 24 170 50 263 151 43 48 93 96 111 107 35 22 50 22
214 2 44 -5 69 -3 104 11 63 24 84 61 84 147 0 105 10 109 178 82 111 -18 189
-13 266 18 108 43 151 52 246 52 75 0 115 -5 193 -28 84 -24 101 -27 111 -15
18 20 72 190 86 275 7 39 11 110 8 157 -4 72 -10 96 -39 154 -40 81 -79 107
-173 117 -33 4 -90 12 -125 19 -57 10 -66 15 -84 44 -23 40 -45 53 -86 53 -17
0 -31 3 -31 6 0 7 224 264 415 474 172 190 264 294 339 384 l58 68 -7 117 c-9
156 -19 241 -66 546 -47 303 -69 499 -69 608 0 63 -3 79 -16 84 -9 3 -22 2
-28 -3 -40 -31 -302 -195 -686 -431 -129 -80 -286 -179 -348 -220 -62 -41
-115 -73 -118 -71 -2 3 -36 61 -75 129 -39 67 -180 292 -313 499 -231 356
-330 519 -390 638 -20 40 -32 52 -49 52 -19 0 -28 -11 -46 -54z m5 -168 c-3
-13 -15 -171 -26 -353 -11 -181 -32 -458 -45 -615 -14 -157 -25 -306 -25 -331
0 -25 -3 -49 -7 -53 -4 -3 -30 17 -59 45 -69 68 -81 64 -118 -34 -16 -42 -34
-77 -41 -77 -11 0 -254 172 -330 235 -25 20 -45 44 -45 54 0 10 69 133 153
272 187 310 314 520 397 659 116 194 133 220 143 220 5 0 7 -10 3 -22z m137
-250 c158 -489 247 -768 267 -841 29 -107 79 -341 74 -349 -5 -7 -118 -43
-279 -89 -63 -17 -105 -24 -115 -19 -8 5 -41 35 -72 67 l-57 58 29 320 c16
176 36 442 45 590 8 149 18 316 22 372 3 56 9 100 13 98 5 -3 37 -96 73 -207z
m51 124 c20 -37 74 -126 120 -197 295 -455 403 -628 477 -762 l33 -63 -39 -41
c-45 -46 -234 -193 -241 -187 -2 3 -9 31 -15 64 -22 122 -73 306 -144 524 -41
124 -97 299 -124 390 -27 91 -66 203 -85 250 -41 96 -39 90 -27 90 6 0 26 -30
45 -68z m-2277 -183 c461 -514 637 -697 785 -820 35 -29 65 -56 66 -61 6 -15
-74 -112 -166 -200 -81 -78 -238 -198 -259 -198 -30 0 -197 423 -377 958 -63
185 -119 350 -125 365 -23 58 -9 50 76 -44z m106 17 c56 -32 100 -46 349 -111
224 -58 302 -86 408 -146 l65 -37 -3 -99 c-2 -97 -29 -405 -38 -431 -3 -10
-13 -6 -37 13 -111 92 -268 251 -479 484 -133 146 -258 281 -280 299 -34 30
-48 52 -32 52 3 0 24 -11 47 -24z m-190 -140 c36 -126 216 -647 284 -821 30
-77 77 -187 105 -244 27 -57 47 -105 45 -107 -9 -10 -401 98 -420 116 -10 9
-21 178 -36 535 -19 465 -22 615 -13 615 4 0 20 -42 35 -94z m4091 -108 c-4
-7 -17 -26 -30 -43 -12 -16 -86 -140 -164 -275 -79 -135 -223 -373 -321 -530
-98 -157 -183 -298 -190 -313 -24 -53 -16 -66 -230 352 -71 138 -87 177 -78
188 16 19 143 101 404 261 121 74 274 170 340 212 208 133 250 158 263 159 8
1 10 -4 6 -11z m33 -100 c-3 -13 -11 -59 -17 -103 -6 -44 -24 -156 -41 -250
-16 -93 -45 -267 -64 -385 -33 -202 -97 -486 -113 -502 -14 -14 -458 75 -478
95 -4 4 0 15 8 24 43 49 596 960 663 1092 26 52 52 69 42 29z m76 -128 c3 -47
20 -170 36 -275 40 -248 58 -395 67 -527 l7 -106 -43 -27 c-64 -41 -292 -156
-297 -151 -3 3 2 26 11 53 29 89 66 273 106 526 22 139 49 302 60 362 10 61
20 129 20 151 0 23 3 56 6 74 10 49 20 18 27 -80z m-3095 5 c38 -95 502 -957
533 -990 5 -5 9 -14 9 -21 0 -14 -117 -188 -129 -192 -5 -1 -14 12 -22 30 -22
54 -264 451 -371 611 -80 118 -99 153 -94 172 11 42 36 305 36 372 0 74 13 80
38 18z m435 -518 c45 -34 127 -94 182 -132 55 -38 102 -70 103 -71 3 -2 -51
-99 -126 -224 -7 -12 -14 -5 -32 30 -12 25 -64 119 -115 210 -58 103 -95 181
-99 208 -3 23 -4 42 -1 42 3 0 42 -28 88 -63z m1497 28 c0 -15 104 -219 212
-414 37 -68 68 -129 68 -135 0 -6 -76 -128 -170 -271 -93 -143 -191 -295 -217
-337 -26 -43 -51 -77 -55 -78 -5 0 -8 23 -8 50 0 94 -74 267 -167 391 -29 39
-53 74 -53 78 0 5 16 35 36 67 43 73 307 596 322 642 11 32 32 36 32 7z
m-1946 -137 c90 -139 359 -581 378 -623 8 -18 -1 -39 -55 -121 -73 -113 -173
-295 -203 -369 -11 -27 -25 -48 -30 -46 -15 8 -235 319 -396 561 -83 123 -170
251 -195 283 -25 32 -43 60 -41 62 2 3 33 23 69 46 124 80 284 230 343 322 10
15 22 27 28 27 5 0 51 -64 102 -142z m1684 -195 c-70 -142 -133 -260 -139
-262 -7 -2 -10 2 -6 11 17 46 49 166 67 258 12 61 28 112 38 122 36 37 148
127 157 127 6 1 -47 -115 -117 -256z m-603 27 c408 -419 542 -587 602 -758 17
-49 17 -55 2 -80 -9 -15 -41 -67 -71 -117 -30 -49 -85 -148 -123 -220 -37 -71
-70 -132 -71 -134 -4 -5 -99 64 -159 116 -27 23 -134 130 -238 237 l-187 195
27 148 c27 142 28 161 28 475 0 181 2 327 5 325 3 -1 86 -85 185 -187z m-247
-97 c3 -207 -4 -300 -39 -523 l-22 -135 -65 -70 c-62 -67 -393 -474 -441 -542
-12 -18 -25 -33 -29 -33 -4 0 -15 41 -25 90 -10 50 -29 128 -44 173 l-25 83
36 86 c57 132 132 258 348 585 109 166 220 343 246 393 25 49 49 90 52 90 3 0
6 -89 8 -197z m717 120 c-3 -10 -22 -88 -41 -173 -19 -85 -37 -156 -39 -158
-4 -4 -53 47 -199 205 l-48 52 29 6 c69 16 233 64 250 74 30 17 56 14 48 -6z
m-2517 -62 c31 -10 126 -34 211 -52 l155 -34 59 -80 c33 -44 102 -145 155
-225 114 -174 279 -410 377 -540 108 -142 113 -155 175 -422 31 -136 33 -156
16 -150 -5 2 -44 8 -87 14 l-79 11 -47 76 c-120 194 -261 400 -382 556 -72 94
-208 278 -302 410 -93 132 -203 285 -244 340 -70 95 -82 115 -70 115 3 0 31
-9 63 -19z m4102 -208 c0 -5 -50 -62 -111 -128 -121 -131 -387 -428 -709 -793
-179 -203 -210 -234 -245 -243 -22 -6 -62 -18 -88 -26 -27 -8 -51 -13 -54 -9
-3 3 42 58 100 123 351 394 623 704 710 811 l101 124 121 58 c66 32 129 65
140 73 22 18 35 21 35 10z m-791 -58 c55 -19 329 -75 369 -75 17 0 33 -3 36
-8 5 -9 -196 -244 -554 -648 -151 -170 -290 -328 -309 -351 -37 -46 -51 -47
-51 -5 0 15 -10 102 -22 193 l-22 165 121 180 c100 149 175 265 349 542 17 26
27 27 83 7z m-1306 -759 c158 -159 252 -245 295 -271 70 -42 64 -30 103 -225
35 -177 37 -170 -45 -197 -108 -36 -225 -46 -388 -34 -181 15 -337 35 -515 67
-218 39 -195 25 -212 133 -13 82 -13 95 1 124 29 59 500 637 520 637 4 0 113
-105 241 -234z m712 -155 c40 -283 48 -247 -77 -343 -43 -32 -91 -73 -107 -91
-19 -20 -34 -28 -39 -22 -11 13 -52 239 -52 288 0 41 40 127 146 314 35 62 64
116 64 121 0 4 6 14 13 21 10 10 13 7 15 -16 2 -15 19 -138 37 -272z m770 52
c7 -2 16 -16 19 -29 9 -36 70 -59 206 -79 63 -9 122 -21 131 -26 21 -11 69
-105 69 -136 0 -17 -7 -24 -27 -29 -16 -3 -120 -33 -232 -65 -321 -94 -348
-99 -585 -109 -222 -10 -295 -22 -363 -60 -57 -32 -80 -77 -65 -126 15 -50 9
-54 -106 -54 -55 0 -106 -6 -125 -14 -18 -7 -61 -45 -96 -84 -73 -83 -84 -88
-288 -123 -83 -14 -174 -22 -258 -23 -121 -1 -134 1 -187 26 -32 15 -78 41
-103 58 -60 41 -116 60 -180 60 -69 0 -107 -15 -243 -93 -113 -65 -171 -85
-214 -72 -13 4 -50 34 -83 66 -44 42 -75 64 -115 77 -36 12 -60 27 -68 43 -15
29 -11 114 13 239 21 109 14 172 -30 268 -41 87 -58 144 -49 165 3 8 41 30 85
47 44 18 82 36 85 41 3 5 9 9 13 9 4 0 61 -85 127 -190 65 -104 125 -192 133
-195 7 -3 61 -12 119 -20 58 -8 107 -17 109 -19 2 -2 6 -26 10 -54 3 -27 9
-55 12 -61 10 -16 258 -66 477 -97 243 -34 533 -39 633 -11 120 33 178 62 263
135 180 154 220 182 261 182 41 0 237 44 267 60 10 5 78 78 151 161 l132 151
45 -7 c24 -4 50 -9 57 -12z m-3035 -198 c0 -8 19 -56 41 -107 41 -92 41 -94
35 -183 -7 -118 -13 -137 -39 -129 -21 7 -52 -23 -82 -78 -9 -16 -20 -28 -26
-28 -14 0 -24 31 -11 39 6 3 15 19 21 34 6 15 34 61 61 103 48 70 60 109 33
109 -11 0 -50 -50 -113 -144 -17 -25 -30 -55 -30 -68 0 -13 -3 -23 -7 -23 -20
1 -99 33 -105 43 -37 58 47 257 170 404 38 45 52 53 52 28z m3465 -165 c11
-18 -16 -171 -42 -244 -15 -39 -28 -73 -29 -75 -2 -2 -39 5 -83 15 l-80 19 -6
65 c-3 36 -7 86 -9 111 l-5 45 92 28 c51 15 103 32 117 36 34 11 38 11 45 0z
m-298 -108 c-3 -16 0 -56 8 -88 21 -88 25 -84 -63 -84 -81 0 -146 -15 -244
-56 -60 -25 -130 -30 -235 -18 -43 6 -53 10 -53 26 0 11 -11 34 -25 52 -14 18
-25 37 -25 43 0 5 -9 18 -20 28 -15 14 -23 16 -32 7 -17 -17 -2 -55 37 -95 19
-20 35 -39 35 -43 0 -3 -14 -4 -31 0 -38 7 -112 -23 -128 -52 -6 -12 -11 -50
-11 -87 0 -57 -3 -69 -25 -90 -21 -22 -33 -25 -92 -24 -109 2 -117 6 -123 67
-10 92 -50 98 -50 6 0 -43 -4 -56 -17 -60 -74 -23 -154 -86 -208 -164 -15 -22
-31 -40 -36 -40 -4 0 -5 33 -2 74 5 70 -1 93 -23 78 -5 -4 -15 -38 -21 -77
-10 -59 -10 -72 3 -86 13 -15 11 -18 -28 -34 -46 -18 -188 -46 -199 -39 -4 2
-4 19 1 37 26 102 18 172 -14 136 -17 -18 -39 -139 -30 -162 6 -16 2 -18 -32
-15 l-39 3 0 79 c0 49 -4 81 -11 83 -22 7 -37 -28 -40 -95 l-3 -67 -58 3 c-53
2 -171 19 -199 27 -9 3 -6 24 7 75 20 73 19 90 -6 90 -9 0 -22 -27 -36 -72
-12 -40 -24 -76 -26 -80 -6 -11 -95 19 -115 40 -19 18 -18 21 12 116 l31 97
32 -20 c86 -56 118 -65 235 -69 171 -6 483 39 548 79 17 10 34 19 36 19 3 0 4
-28 4 -61 -1 -67 16 -90 34 -45 5 14 16 26 24 26 8 0 16 10 18 23 2 16 9 21
26 19 12 -2 22 1 22 7 0 5 12 16 27 23 23 11 29 22 35 62 7 53 4 66 -16 66
-14 0 -26 -30 -26 -67 0 -13 -5 -23 -11 -23 -7 0 -8 11 -4 30 4 19 3 30 -4 30
-15 0 -70 -61 -71 -77 0 -17 -15 -16 -29 1 -9 10 -2 24 31 61 54 61 94 78 163
70 63 -8 152 14 180 45 15 17 16 24 7 46 -7 13 -12 38 -12 54 0 23 7 32 43 48
63 31 187 50 328 51 l126 1 17 -67 c19 -76 30 -93 57 -93 23 0 23 8 5 46 -8
16 -17 50 -21 77 l-6 47 38 0 c21 0 72 9 112 20 41 12 77 17 81 13 4 -4 13
-34 20 -67 13 -56 32 -78 50 -60 8 8 -8 94 -24 135 -5 11 3 18 31 26 62 17 66
16 60 -15z m-3111 -188 c-3 -9 -6 -22 -6 -30 0 -8 -5 -14 -12 -14 -6 0 -24
-15 -39 -32 -41 -48 -36 -13 6 45 34 45 64 64 51 31z m-1 -118 c12 -62 39 -92
102 -116 39 -14 76 -38 113 -74 70 -68 86 -76 154 -76 46 0 69 7 143 47 227
120 234 123 282 123 58 0 138 -34 123 -53 -9 -10 -49 -109 -66 -159 -5 -16 -8
-16 -40 -3 -20 8 -54 15 -76 15 -22 0 -40 4 -40 8 0 4 10 36 21 71 16 47 19
65 10 74 -9 9 -14 8 -21 -3 -18 -28 -50 -121 -50 -145 0 -13 -4 -26 -9 -30
-19 -11 -22 15 -7 69 14 56 13 66 -10 66 -15 0 -44 -82 -44 -126 0 -25 -8 -38
-36 -59 -19 -15 -38 -24 -41 -21 -3 3 6 33 21 66 30 71 33 93 9 88 -26 -5 -84
-126 -78 -164 5 -28 2 -32 -45 -54 -27 -13 -52 -22 -54 -19 -2 2 7 39 21 82
19 58 23 81 14 90 -18 18 -35 -8 -67 -101 l-29 -84 -55 7 c-30 4 -57 9 -59 11
-2 1 13 43 34 91 44 105 46 118 21 118 -15 0 -30 -22 -62 -95 l-42 -95 -36 1
c-48 2 -53 9 -34 42 29 49 90 221 85 237 -10 26 -27 17 -43 -22 -38 -94 -99
-223 -107 -223 -11 0 -57 50 -73 81 -7 15 -18 69 -25 120 -6 52 -13 97 -15
101 -5 8 88 147 98 148 4 0 10 -15 13 -34z m-100 -16 c-5 -8 -11 -8 -17 -2 -6
6 -7 16 -3 22 5 8 11 8 17 2 6 -6 7 -16 3 -22z"/>
<path d="M3678 4729 c-23 -13 -23 -26 1 -39 27 -14 53 -2 49 24 -3 24 -25 30
-50 15z"/>
<path d="M3714 4599 c-75 -22 -61 -65 16 -48 49 11 65 26 48 46 -12 15 -20 15
-64 2z"/>
<path d="M3756 4431 c-81 -28 -73 -57 13 -45 65 8 91 25 72 48 -16 19 -23 19
-85 -3z"/>
<path d="M3750 4254 c-102 -27 -121 -37 -103 -55 9 -9 34 -7 100 5 142 27 135
24 131 49 -4 29 -17 29 -128 1z"/>
<path d="M3755 4066 c-71 -18 -142 -36 -157 -40 -29 -7 -38 -33 -15 -41 7 -3
48 4 92 15 44 11 120 27 169 35 88 14 109 25 99 52 -8 20 -45 16 -188 -21z"/>
<path d="M3920 4867 c0 -30 276 -533 306 -558 16 -13 34 -4 34 18 0 9 -49 98
-109 197 -60 100 -128 220 -152 269 -30 60 -49 87 -61 87 -10 0 -18 -6 -18
-13z"/>
<path d="M4054 4366 c-3 -9 0 -26 8 -39 8 -12 23 -43 32 -69 18 -45 38 -64 57
-52 17 10 9 39 -28 103 -40 68 -59 83 -69 57z"/>
<path d="M1741 4537 c-8 -10 1 -39 36 -118 25 -57 66 -162 92 -234 33 -92 51
-131 64 -133 27 -5 22 22 -38 192 -60 172 -118 306 -133 306 -5 0 -15 -6 -21
-13z"/>
<path d="M1696 4392 c-5 -8 110 -355 148 -446 9 -21 22 -36 32 -36 20 0 16 26
-16 115 -12 33 -43 130 -69 215 -40 131 -50 155 -68 158 -12 2 -24 -1 -27 -6z"/>
<path d="M1902 4367 c-8 -9 3 -44 37 -127 79 -189 100 -225 124 -201 7 7 0 32
-25 88 -20 43 -48 112 -63 153 -37 100 -50 115 -73 87z"/>
<path d="M2004 4355 c-8 -19 85 -205 108 -219 12 -7 21 -7 29 1 8 8 4 21 -15
49 -13 22 -35 66 -47 99 -12 33 -26 66 -32 73 -13 17 -36 15 -43 -3z"/>
<path d="M2252 4783 c-30 -58 -75 -224 -76 -278 -1 -53 1 -60 18 -60 17 0 22
11 31 80 7 45 24 118 39 163 27 79 28 112 7 112 -6 0 -14 -8 -19 -17z"/>
<path d="M2010 4718 c-24 -38 -22 -71 2 -76 18 -4 34 24 45 81 8 39 -22 36
-47 -5z"/>
<path d="M2133 4728 c-22 -28 -75 -157 -69 -167 4 -6 15 -11 25 -11 13 0 24
17 40 60 12 32 28 71 36 86 8 15 12 31 9 36 -8 12 -30 10 -41 -4z"/>
<path d="M2306 4672 c-13 -22 -36 -139 -41 -213 -6 -88 1 -116 29 -106 12 5
16 21 16 69 0 57 8 119 26 221 5 30 4 37 -9 37 -9 0 -18 -3 -21 -8z"/>
<path d="M4447 3853 c-16 -15 -3 -48 63 -165 77 -135 96 -156 118 -135 11 12
2 33 -57 138 -94 168 -105 182 -124 162z"/>
<path d="M4417 3636 c-9 -22 94 -160 121 -164 34 -5 39 25 10 56 -14 15 -40
48 -58 75 -33 47 -63 60 -73 33z"/>
<path d="M4364 3507 c-7 -20 37 -105 70 -136 25 -23 28 -24 43 -8 16 15 15 18
-3 38 -10 11 -30 42 -44 67 -26 48 -56 65 -66 39z"/>
<path d="M4321 3356 c-18 -21 41 -136 69 -136 30 0 35 25 12 57 -10 15 -24 42
-29 58 -11 34 -34 43 -52 21z"/>
<path d="M2294 4055 c-7 -17 45 -94 64 -95 24 0 23 28 -2 69 -27 42 -52 53
-62 26z"/>
<path d="M2203 3963 c-7 -3 -13 -10 -13 -18 0 -18 68 -128 85 -138 20 -11 32
20 17 42 -6 9 -21 37 -33 63 -21 47 -34 59 -56 51z"/>
<path d="M2111 3866 c-15 -17 -14 -18 77 -169 73 -121 87 -136 105 -118 9 9 7
18 -6 39 -9 15 -47 80 -83 145 -36 64 -69 117 -74 117 -4 0 -13 -6 -19 -14z"/>
<path d="M2002 3757 c-8 -10 1 -26 40 -67 28 -30 90 -118 138 -195 48 -76 92
-141 99 -143 33 -11 14 40 -66 173 -87 146 -163 245 -188 245 -7 0 -17 -6 -23
-13z"/>
<path d="M3457 3883 c-2 -5 -8 -41 -11 -81 -4 -41 -19 -135 -32 -210 -14 -76
-28 -188 -31 -249 -6 -108 -5 -113 14 -113 18 0 21 9 27 103 4 56 20 167 36
247 37 190 46 276 30 295 -14 16 -26 19 -33 8z"/>
<path d="M3576 3738 c-2 -7 -7 -38 -10 -68 -3 -31 -22 -109 -41 -175 -38 -127
-66 -270 -58 -292 3 -8 13 -13 22 -11 12 2 18 20 23 69 4 36 28 128 54 205 36
107 47 155 48 209 1 59 -2 70 -17 73 -9 2 -19 -2 -21 -10z"/>
<path d="M3650 3538 c-6 -24 -29 -92 -50 -153 -45 -125 -65 -214 -51 -228 20
-20 38 2 44 52 3 28 27 102 52 164 25 61 49 133 52 160 5 43 4 47 -15 47 -17
0 -24 -9 -32 -42z"/>
<path d="M3743 3488 c-26 -32 -129 -438 -119 -465 8 -21 35 -15 40 10 22 113
34 160 73 281 24 77 43 148 41 159 -4 25 -21 32 -35 15z"/>
<path d="M3838 3384 c-29 -67 -79 -270 -81 -334 -2 -43 1 -55 13 -55 9 0 17
16 22 45 18 97 50 213 78 286 24 59 28 79 19 90 -19 23 -29 16 -51 -32z"/>
<path d="M3961 3257 c-12 -15 -65 -181 -75 -238 -5 -26 -2 -40 8 -48 23 -19
33 -7 39 49 3 28 23 89 43 136 29 68 34 87 24 99 -15 19 -24 19 -39 2z"/>
<path d="M4035 3168 c-30 -80 -65 -208 -65 -235 0 -50 31 -41 42 12 5 22 22
75 40 119 23 57 29 83 21 94 -13 21 -32 26 -38 10z"/>
<path d="M4731 3507 c-6 -6 -11 -17 -11 -25 0 -20 96 -60 204 -84 90 -21 97
-21 113 -6 23 23 1 48 -41 48 -41 0 -167 35 -216 60 -28 14 -40 16 -49 7z"/>
<path d="M4666 3394 c-15 -15 -12 -44 6 -44 5 0 44 -16 86 -35 68 -32 77 -34
91 -20 21 21 5 35 -91 79 -69 31 -79 34 -92 20z"/>
<path d="M4583 3274 c-8 -21 12 -37 70 -58 91 -34 110 10 22 50 -65 28 -83 30
-92 8z"/>
<path d="M4501 3156 c-16 -19 -6 -39 28 -59 65 -38 90 -4 32 43 -45 35 -45 35
-60 16z"/>
<path d="M3787 2313 c-14 -13 -6 -49 18 -85 14 -20 25 -41 25 -46 0 -18 -47
-24 -240 -31 -164 -5 -195 -8 -195 -21 0 -23 181 -35 317 -21 105 10 164 29
174 55 3 7 -11 45 -31 84 -33 66 -51 83 -68 65z"/>
<path d="M2034 2546 c-3 -8 8 -35 25 -59 27 -40 65 -147 86 -244 7 -34 31 -45
41 -19 10 26 -55 249 -84 291 -30 43 -58 56 -68 31z"/>
<path d="M5126 2521 c-13 -21 3 -28 75 -34 40 -3 76 -10 81 -15 4 -4 -47 -22
-115 -39 -184 -46 -252 -82 -218 -116 8 -8 18 -7 39 5 15 9 96 37 181 62 85
26 163 52 173 57 28 15 18 42 -24 62 -45 22 -182 35 -192 18z"/>
<path d="M2095 2040 c-3 -5 -6 -35 -7 -66 -2 -72 16 -91 68 -69 l34 14 43 -57
c31 -41 51 -58 70 -60 35 -4 35 12 0 47 -16 15 -43 47 -62 70 -32 41 -36 43
-73 37 l-40 -7 7 33 c8 36 8 37 6 56 -1 14 -37 16 -46 2z"/>
<path d="M2820 1935 c-19 -23 -2 -35 49 -34 39 1 57 -5 99 -34 77 -53 114 -62
179 -46 52 12 57 11 97 -11 42 -23 66 -21 66 4 0 7 -21 23 -46 35 -40 20 -54
22 -119 16 -80 -7 -91 -4 -164 52 -37 28 -52 33 -96 33 -34 0 -57 -5 -65 -15z"/>
<path d="M1852 2363 c-88 -150 -127 -258 -102 -288 18 -22 37 -7 44 36 9 58
40 135 91 223 24 43 42 83 39 87 -13 22 -35 4 -72 -58z"/>
<path d="M5326 2278 c-8 -30 -8 -122 0 -142 14 -36 31 -15 38 45 10 102 8 119
-13 119 -11 0 -21 -9 -25 -22z"/>
<path d="M5249 2274 c-10 -12 -13 -40 -11 -98 3 -97 8 -116 31 -116 15 0 17
12 16 112 0 114 -8 136 -36 102z"/>
<path d="M4854 2147 c-8 -21 20 -91 37 -95 22 -4 27 15 17 66 -7 32 -14 42
-29 42 -11 0 -22 -6 -25 -13z"/>
<path d="M4570 2125 c-23 -28 32 -144 63 -132 15 5 15 10 2 41 -8 20 -15 46
-15 59 0 22 -16 47 -31 47 -4 0 -12 -7 -19 -15z"/>
<path d="M4280 2082 c0 -22 57 -92 75 -92 25 0 24 15 -8 63 -31 48 -67 64 -67
29z"/>
<path d="M4225 2069 c-18 -29 56 -132 79 -109 8 8 7 15 -2 28 -6 9 -21 34 -32
55 -21 38 -34 45 -45 26z"/>
<path d="M4224 1935 c-10 -24 17 -136 33 -142 32 -12 37 14 16 84 -20 68 -38
88 -49 58z"/>
<path d="M4134 1894 c-9 -35 1 -123 15 -137 8 -8 15 -8 25 3 12 13 13 27 3 88
-12 74 -31 95 -43 46z"/>
<path d="M2956 1698 c-8 -13 -22 -46 -32 -75 -15 -43 -16 -54 -4 -67 9 -12 16
-14 24 -6 10 10 31 77 42 138 8 38 -8 43 -30 10z"/>
<path d="M3632 1653 c-16 -31 -34 -123 -28 -139 3 -8 14 -14 23 -12 12 2 20
21 29 68 17 86 17 100 -1 100 -8 0 -18 -8 -23 -17z"/>
<path d="M3203 1628 c-17 -22 -42 -108 -36 -123 6 -17 29 -20 38 -5 12 19 35
122 29 131 -7 13 -20 11 -31 -3z"/>
<path d="M1947 1858 c-49 -65 -59 -108 -25 -108 14 0 68 91 68 114 0 29 -19
26 -43 -6z"/>
<path d="M2777 1795 c-22 -21 -52 -118 -43 -140 9 -26 30 -12 39 26 5 19 16
51 25 72 18 44 6 69 -21 42z"/>
<path d="M1969 1724 c-38 -67 -45 -129 -15 -129 14 0 22 12 31 48 7 27 22 61
34 77 26 36 27 60 2 60 -13 0 -30 -19 -52 -56z"/>
<path d="M2820 1738 c-21 -46 -26 -103 -11 -113 15 -9 31 27 58 133 10 41 -26
26 -47 -20z"/>
</g>
</svg>
